<svg xmlns="http://www.w3.org/2000/svg" viewBox="0 0 864 452">
<path fill="#dfdfdf" d="M838.37,247.93 C838.87,234.98 839.16,222.03 839.97,209.1 C840.24,204.69 843.69,199.51 842.22,196.25 C840.8,193.09 834.86,192.04 830.99,189.91 C818.44,183 811.81,172.29 810.92,158.04 C810.73,154.88 810.64,151.71 810.79,148.55 C810.94,145.41 809.51,141.01 813.89,140.04 C818.43,139.04 823.28,139.37 827.99,139.34 C828.08,139.34 828.86,142.62 828.19,143.52 C819.03,155.79 821.31,169.9 834.57,177.81 C839.46,180.72 845.35,181.95 850.79,183.94 C853.75,185.02 856.84,185.81 859.63,187.23 C861.98,188.42 863.34,190.94 860.66,192.81 C851.65,199.12 850.83,208.81 850.34,218.21 C848.59,251.82 850.97,285.15 859.3,317.86 C860.27,321.68 862.72,325.13 864.75,328.37 C865,330.37 865,332.74 864.61,335.27 C863.66,338.3 862.86,341.14 862.58,344.03 C862.06,349.33 862.34,354.74 861.42,359.95 C856.08,390.2 838.23,411.82 813,427.76 C785.78,444.94 755.48,448.27 724.4,444.31 C705.12,441.86 686.12,437.19 667,433.51 C611.25,422.78 555.36,418.91 499.17,430.07 C477.89,434.3 457,439.87 437.69,450.14 C436.59,450.72 435.89,452.03 435,453 C433.29,453 431.57,453 429.78,452.73 C422.79,449.02 416.13,444.84 408.91,442.25 C367.94,427.56 325.47,422.26 282.13,423.5 C244.01,424.6 206.59,430.73 169.53,439.48 C142.5,445.86 115.02,449.11 87.86,442.02 C43.27,430.38 12.01,404.42 2.65,356.97 C2.57,356.55 1.57,356.32 1,356 C1,346.65 1,337.29 1,327.47 C2.1,325.89 3.87,324.94 4.18,323.64 C6.53,313.95 9.06,304.26 10.64,294.43 C14.65,269.53 16.06,244.43 14.94,219.22 C14.72,214.11 14.07,208.85 12.51,204.01 C11.35,200.4 8.77,197.05 6.17,194.16 C2.95,190.57 2.83,188.73 7.28,186.74 C10.14,185.46 13.36,185.03 16.26,183.82 C22.5,181.23 29.37,179.38 34.65,175.44 C45.63,167.24 46.51,154.36 37.89,143.75 C35.68,141.05 36.43,139.41 39.54,138.9 C42.28,138.44 45.19,138.12 47.91,138.51 C52.66,139.19 55.93,141.47 55.2,147.18 C54.27,154.4 54.72,162 52.63,168.84 C48.72,181.67 38.96,189.4 26.44,193.56 C23.53,194.52 22.08,195.7 23.11,198.85 C29.54,218.61 27.76,238.8 25.28,258.78 C22.52,281.07 17.93,303.13 14.99,325.41 C8.6,373.76 33.21,412.52 79.67,427.98 C105.41,436.53 131.54,435.18 157.73,430.45 C185.24,425.49 212.58,419.21 240.28,415.68 C299.35,408.14 357.65,412.1 414.29,432 C420.4,434.15 426.31,438.73 432.32,438.73 C438.32,438.72 444.25,434.18 450.34,431.96 C493.05,416.43 537.31,411.3 582.49,412.49 C623.13,413.55 662.93,420.49 702.5,429.4 C728.79,435.31 755.3,436.86 781.58,429.02 C808.02,421.13 828.2,404.96 841.84,381.13 C845.73,374.34 847.43,366.3 850.31,358.06 C850.73,352.49 851.58,347.6 851.08,342.86 C849.73,329.81 847.86,316.8 846.09,303.78 C843.56,285.16 840.95,266.55 838.37,247.93 z" />
<path fill="#dfdfdf" d="M485.53,1 C487.17,1.59 488.32,2.62 489.53,2.7 C506.98,3.81 524.52,4.11 541.9,5.94 C577.66,9.71 613.49,13.35 649.04,18.7 C714.29,28.53 779.16,27.65 843.94,15.3 C849.6,14.22 855.42,12.99 860.76,16.23 C860.88,16.84 861.12,17.26 860.99,17.46 C851.49,32.48 855.32,49.09 855.57,65.2 C855.61,67.85 857.56,70.84 859.41,73.01 C861.99,76.03 861.79,78.75 859.05,80.74 C855.6,83.25 851.67,85.15 847.8,86.99 C843.16,89.2 838.03,90.53 833.68,93.18 C821.05,100.89 818.85,114.28 828.03,125.85 C830.38,128.8 829.2,130.38 826.25,130.46 C822.33,130.57 818.3,130.15 814.49,129.24 C813.1,128.91 811.42,126.61 811.2,125.03 C808.09,101.82 816.34,87.45 838.13,78.59 C842.58,76.78 844.12,74.5 843.98,69.71 C843.62,57.39 843.89,45.06 843.88,32.73 C843.87,26.59 843.38,26.22 837.18,27.36 C802.67,33.71 767.89,36.98 732.8,36.76 C699.88,36.55 667.34,32.28 634.85,27.54 C534.88,12.93 434.44,8.71 333.74,16.53 C286.61,20.19 239.67,26.58 192.74,32.45 C144.6,38.48 96.67,37.73 48.77,30.5 C41.69,29.43 34.6,28.41 27.55,27.21 C23.8,26.57 21.96,27.45 22,31.71 C22.15,45.2 21.89,58.71 22.16,72.2 C22.19,73.97 23.97,76.31 25.61,77.33 C29.53,79.8 34.03,81.33 37.97,83.78 C49.12,90.73 54.94,100.87 55.17,114.09 C55.21,115.92 55.39,117.79 55.09,119.58 C54.56,122.68 54.48,127.78 52.83,128.41 C48.57,130.03 43.56,129.99 38.85,129.95 C36.38,129.94 36.15,128.12 37.79,126.1 C47.23,114.48 45.36,101.63 32.72,93.53 C28.57,90.86 23.75,89.22 19.22,87.14 C16.05,85.69 12.69,84.56 9.7,82.81 C4.36,79.68 4.31,77.14 7.68,72.17 C9.45,69.58 10.64,66.12 10.79,62.99 C11.2,53.84 11.51,44.62 10.77,35.52 C10.35,30.27 8.24,25.02 6.1,20.11 C4.72,16.95 4.8,15.11 8.23,14.89 C12.66,14.6 17.23,14.48 21.56,15.26 C66.15,23.25 111.03,28.05 156.32,24.68 C182.87,22.7 209.31,19.09 235.72,15.58 C280.17,9.68 324.7,4.97 369.5,2.88 C371.89,2.77 374.25,2.14 376.31,1.38 C412.35,1 448.71,1 485.53,1 z" />
<path fill="#dfdfdf" d="M433.61,434.82 C432.49,434.64 431.27,434.68 430.28,434.23 C394.2,417.95 355.95,411.27 316.81,408.95 C265.97,405.94 216.12,412.99 166.71,424.43 C140.33,430.54 113.67,433.14 87.06,426.02 C60.01,418.79 39.51,402.69 25.62,378.34 C15.32,360.26 16.64,340.88 19.52,321.37 C23.1,297.16 27.14,273 30.06,248.72 C31.98,232.69 32.62,216.46 27.74,200.61 C27.45,199.66 28.56,198.22 29.16,197.09 C29.35,196.74 30.03,196.65 30.48,196.44 C51.83,186.26 60.25,172.08 59.16,148.16 C59.02,145.09 57.76,141 61.85,140.11 C66.37,139.12 71.2,139.58 75.9,139.41 C75.87,141.07 76.53,143.43 75.68,144.27 C71.58,148.37 70.35,153.28 70.16,158.81 C69.52,177.66 60.82,191.79 44.68,201.34 C41.91,202.98 40.66,204.7 41.04,208.07 C44.21,236.17 40.67,263.94 36.52,291.65 C35.12,301.03 32.91,310.3 31.67,319.69 C31.2,323.23 32.46,326.99 32.87,330.65 C33.03,332.04 33.62,333.86 32.99,334.78 C27.24,343.26 28.72,352.39 30.81,361.32 C33.63,373.33 40.66,383.11 49.21,391.71 C65.55,408.16 85.62,416.3 108.58,418.06 C132.5,419.88 155.66,415.5 178.87,410.62 C225.48,400.81 272.47,394.78 320.26,397.92 C357.55,400.36 393.86,407.3 428.83,420.76 C431.04,421.61 434.15,421.62 436.35,420.76 C490.88,399.61 547.42,394.35 605.31,398.43 C641.5,400.98 676.84,408.32 712.29,415.37 C734.39,419.76 756.73,420.68 778.58,413.88 C802.48,406.45 820.48,391.47 831.12,368.69 C833.98,362.57 834.8,355.28 835.49,348.42 C836.35,339.83 831.11,332.04 833.23,322.53 C834.87,315.18 830.52,306.65 829.64,298.56 C827.19,276.06 824.88,253.53 823.13,230.97 C822.57,223.74 823.67,216.34 824.5,209.07 C824.89,205.66 824.35,203.45 821.31,201.58 C804.49,191.26 796.25,176.13 795.42,156.42 C795.26,152.53 792.24,148.74 790.46,144.94 C789.79,143.52 788.9,142.21 788.12,140.84 C789.65,140 791.16,138.51 792.72,138.44 C795.83,138.31 799.07,138.59 802.06,139.41 C805.59,140.37 807.32,142.76 807.01,146.91 C806.65,151.86 806.83,156.92 807.4,161.86 C809.28,178.15 818.82,188.87 833.29,195.35 C837.8,197.38 838.41,199.34 837.14,203.95 C833.24,218.12 833.8,232.66 834.88,248.02 C836.44,262.24 837.58,275.65 839.61,288.92 C843.08,311.51 848.95,333.82 846.97,357 C835.2,399.83 798.48,428.14 752.95,430.07 C729.85,431.04 707.6,426.54 685.26,421.63 C631.72,409.88 577.67,404.66 522.94,411.04 C493.56,414.46 464.83,420.73 436.99,432.98 C435.45,433.73 434.53,434.28 433.61,434.82 z" />
<path fill="#dfdfdf" d="M85.7,50.18 C69.54,48.39 53.84,46.63 37.44,44.79 C37.44,51.19 37.24,57.76 37.6,64.3 C37.67,65.64 39.71,67.01 41.05,68.11 C46.44,72.55 52.26,76.52 57.27,81.33 C64.19,87.97 68.31,96.39 69.65,105.89 C70.81,114.09 70.04,122.84 78.46,128.07 C73.89,131.84 63.52,131.79 60.25,128.26 C59.3,127.24 59.08,125.3 59.01,123.76 C58.79,118.93 59.14,114.07 58.68,109.28 C57.13,93.31 47.39,83.17 33.56,77.06 C27.06,74.18 25.38,70.52 25.74,63.91 C26.31,53.47 25.89,42.98 25.89,31.54 C30.83,32.16 35.2,32.56 39.53,33.28 C96.04,42.68 152.59,43 209.25,34.5 C289.15,22.52 369.44,16.09 450.3,17.35 C505.66,18.22 560.82,21.76 615.74,29.02 C643.14,32.63 670.55,36.44 698.05,39.13 C740.43,43.28 782.6,40.29 824.55,33.53 C829.43,32.75 834.33,32.01 840.02,31.13 C840.02,35.57 840.02,39.34 840.02,43.1 C840.03,51.6 839.83,60.11 840.15,68.59 C840.29,72.22 839.11,74 835.8,75.28 C832.72,76.46 829.86,78.27 827.02,80 C812.37,88.93 806.17,102.25 806.69,119.13 C806.8,122.57 808.68,126.94 804.21,128.95 C798.98,131.32 793.47,131.96 788.22,129.28 C788.15,128.57 788.05,128.32 788.12,128.26 C795.4,121.96 795.11,113.06 796.6,104.62 C799.08,90.68 807.41,80.11 819.01,72.86 C827.07,67.82 830.14,61.88 828.67,52.87 C828.27,50.47 828.61,47.95 828.61,44.78 C821.47,45.66 814.93,46.41 808.41,47.29 C756.69,54.31 705.07,53.21 653.48,45.6 C585.51,35.58 517.3,28.15 448.45,28.66 C444.05,28.7 439.67,29.99 435.28,30.62 C433.66,30.85 431.98,31.11 430.38,30.92 C425.18,30.31 420.01,28.87 414.83,28.85 C351.37,28.59 288.38,34.57 225.63,43.57 C179.34,50.21 132.97,54.69 85.7,50.18 z" />
<path fill="#dfdfdf" d="M579.63,194.37 C596.59,211.63 597.6,231.74 589.78,252.58 C582.02,273.25 565.18,282.98 543.92,283.87 C520.79,284.83 497.6,284.18 474.43,284.19 C467.27,284.2 460.1,284.28 452.95,283.92 C450.84,283.82 448.81,282.32 446.74,281.46 C447.86,279.72 448.7,277.68 450.16,276.29 C454.94,271.71 456.96,266.15 456.96,259.68 C456.94,244.19 456.98,228.69 456.93,213.19 C456.9,204.69 454.89,196.98 447.66,191.55 C445.21,189.71 445.64,187.96 447.82,186.35 C455.14,180.94 457.05,173.29 457.02,164.75 C456.96,149.91 456.85,135.08 457.04,120.25 C457.13,112.76 454.78,106.6 449.17,101.59 C447.92,100.48 447.3,98.66 446.4,97.17 C448.08,96.28 449.68,95.06 451.47,94.59 C453.53,94.05 455.76,94.02 457.92,94.02 C483.75,94.01 509.58,94 535.41,94.08 C549.28,94.12 561.87,97.92 573.28,106.16 C594.43,121.44 602.52,164.98 571.57,184.85 C570.87,185.3 570.26,185.86 569.45,186.49 C572.84,189.09 576.1,191.61 579.63,194.37 M556.27,183.83 C583.15,168.7 580.97,130.4 560.41,116.08 C553.08,110.97 544.99,108.08 536.14,107.92 C517.48,107.58 498.81,107.6 480.15,107.45 C473.21,107.4 472.94,107.62 472.94,114.76 C472.9,164.76 472.88,214.75 472.86,264.75 C472.86,265.91 472.94,267.08 472.89,268.25 C472.75,270.99 474.05,272.18 476.77,272.16 C497.26,272.05 517.79,272.61 538.25,271.71 C558.09,270.85 571.65,260.14 576.46,243.4 C579.04,234.43 579.34,225.31 577.04,216.22 C573.89,203.76 566.32,195.02 554.48,189.97 C552.92,189.31 551.36,188.62 549.06,187.62 C551.82,186.16 553.72,185.16 556.27,183.83 z" />
<path fill="#dfdfdf" d="M295.01,232 C297.53,250.77 313.89,267.36 334.22,270.86 C341.02,272.03 348.12,271.49 355.77,271.66 C356.98,271.39 357.49,271.2 358,271.02 C378.57,268.94 396.27,251.88 399.87,230.26 C400.81,224.56 400.81,218.71 401.28,212.2 C401.23,210.31 401.15,209.15 401.07,207.98 C401.17,203.96 401.26,199.95 401.39,195.1 C401.34,189.5 401.26,184.72 401.18,179.95 C401.36,163.47 401.57,146.98 401.69,130.5 C401.76,121.33 401.79,112.17 401.59,103 C401.52,99.9 402.51,98.04 405.38,96.84 C411.39,94.33 417.52,93.2 423.9,94.95 C427.9,96.05 428.52,98.11 425.34,100.8 C418.71,106.41 417,113.58 417.11,121.82 C417.3,136.32 417.17,150.81 417.09,165.31 C417.05,173.5 418.95,180.84 425.61,186.27 C428.4,188.54 428.01,190.59 425.32,192.7 C419.01,197.65 417.18,204.52 416.9,212.17 C416.65,219.15 416.71,226.24 415.44,233.06 C410.19,261.11 387.94,281.96 358.54,285.63 C331.76,288.96 308.25,282.11 290.75,260.18 C283.03,250.52 279.14,239.29 278.07,227.06 C277.66,222.25 277.4,217.41 277.36,212.58 C277.29,204.7 275.06,197.78 268.93,192.53 C266.14,190.15 266.65,188.04 269.06,185.91 C275.57,180.14 277.48,172.79 277.31,164.33 C277.01,149.84 277.01,135.33 277.29,120.84 C277.45,112.88 275.64,106.04 269.45,100.68 C268.38,99.76 267.7,98.4 266.85,97.27 C272.92,92.11 288.37,93.45 292.28,99.37 C293.17,100.72 293.09,102.84 293.09,104.61 C293.11,139.44 293.05,174.26 293.06,209.09 C293.06,213.42 293.3,217.75 293.47,222.76 C293.66,223.97 293.81,224.49 293.96,225.01 C294.04,226.4 294.12,227.79 294.28,229.84 C294.58,230.99 294.79,231.5 295.01,232 z" />
<path fill="#dfdfdf" d="M168.56,94.45 C190.01,92.21 209.5,95.78 226.27,109.57 C234.57,116.39 240.16,125.12 244.66,134.77 C246.88,139.54 249.81,144.03 252.79,148.38 C255.4,152.19 255.21,153.56 250.57,154.29 C247.16,154.83 243.59,154.97 240.16,154.62 C234.75,154.05 231.46,151.4 230.12,145.42 C224.87,121.81 210.88,109.78 186.66,108.01 C179.76,107.5 172.66,107.91 165.8,108.91 C146.11,111.77 134.41,123.98 129.15,142.54 C127.12,149.7 125.47,157.26 125.46,164.64 C125.43,185.26 124.96,206.02 127.18,226.46 C131.01,261.67 154.7,278.64 189.83,273.4 C213.45,269.88 226.21,257.56 230.95,234.19 C231.38,232.04 233.62,228.91 235.41,228.61 C240.68,227.73 246.17,227.66 251.51,228.09 C254.23,228.3 255.02,230.39 253.02,233.23 C249.71,237.93 246.2,242.69 243.99,247.93 C223.28,297.02 155.38,298.19 127.25,267.38 C117.19,256.36 111.73,243.47 110,228.86 C109.23,222.41 108.85,215.92 108.24,209.46 C107.67,203.41 105.33,198.18 100.67,194.19 C98,191.91 97.26,189.89 100.41,187.39 C106.33,182.68 108.29,176.1 108.94,168.9 C109.63,161.27 110.1,153.59 111.32,146.04 C115.59,119.49 137.17,99.16 165.14,94.97 C166.13,94.82 167.12,94.68 168.56,94.45 z" />
<path fill="#dfdfdf" d="M395.91,174.03 C395.84,176.06 395.76,178.09 395.65,180.93 C395.7,186.5 395.78,191.27 395.86,196.04 C395.75,201.74 395.64,207.44 395.5,213.96 C395.47,216.52 395.49,218.28 395.5,220.04 C394.46,232.6 391.31,244.4 381.76,253.34 C366.61,267.53 348.55,269.46 329.65,263.71 C312.25,258.43 302.82,245.56 299.75,227.12 C299.48,225.61 299.27,224.8 299.06,223.98 C299.06,184.35 299.18,144.72 298.92,105.09 C298.88,99.87 300.86,97.41 305.33,96.07 C312.28,93.99 319.18,92.92 326.64,97.34 C325.18,99.03 324.22,100.52 322.91,101.58 C317.58,105.88 315.24,111.54 315.18,118.2 C315.04,134.69 314.92,151.17 314.94,167.66 C314.95,174.95 317.16,181.46 323.11,186.19 C326.19,188.64 325.29,190.28 322.91,192.96 C319.92,196.32 316.23,200.46 315.92,204.5 C315.2,213.81 314.9,223.61 317.04,232.58 C320.29,246.15 334.5,253.93 350.46,253.04 C364,252.28 376.27,242.55 378.63,229.48 C379.94,222.2 379.83,214.58 379.61,207.13 C379.44,201.67 376.84,196.83 372.34,193.42 C369.32,191.13 368.6,188.89 371.69,186.18 C378.4,180.29 380.05,172.61 379.94,164.08 C379.75,149.42 379.8,134.76 379.94,120.11 C380.01,112.51 377.96,106.05 371.78,101.17 C370.62,100.25 370.09,98.52 369.27,97.17 C370.78,96.28 372.24,94.75 373.81,94.62 C377.58,94.3 381.49,94.14 385.19,94.81 C394.5,96.49 395.81,98.36 395.79,107.62 C395.76,128.1 395.76,148.58 395.71,169.79 C395.75,171.69 395.83,172.85 395.91,174.03 z" />
<path fill="#dfdfdf" d="M197.22,115.72 C213.36,120.49 221.9,131.41 224.66,147.23 C224.88,148.52 224.61,150.36 223.81,151.3 C219.65,156.19 205.27,156.31 199.95,151.36 C200.78,150.43 201.54,149.41 202.45,148.55 C206.69,144.59 207.01,142.15 203.71,137.42 C203.05,136.47 202.27,135.58 201.42,134.79 C185.4,119.91 155.07,127.48 149.32,148.43 C147,156.88 146.83,166.21 147.36,175.03 C147.6,179.22 151.37,183.5 154.31,187.11 C156.64,189.98 157.58,191.69 154.25,194.33 C149.25,198.3 146.64,203.87 146.95,210.1 C147.36,218.35 147.79,226.79 149.88,234.71 C152.6,244.98 160.13,251.82 170.79,253.04 C178.21,253.89 186.04,253.24 193.4,251.8 C197.2,251.05 200.84,247.56 203.69,244.5 C206.79,241.18 206.49,237.33 202.67,234.04 C198.92,230.8 199.49,228.99 204.36,227.55 C204.84,227.41 205.32,227.24 205.81,227.2 C212.21,226.62 220,225.66 223.3,231.29 C225.33,234.75 222.84,241.78 220.8,246.52 C215.73,258.27 205.92,265.08 193.57,266.82 C184.62,268.08 175.23,268.18 166.28,267 C151.71,265.06 141.47,256.26 136.94,242.32 C134.14,233.7 132,224.48 131.82,215.48 C131.39,195.05 130.82,174.41 133.11,154.17 C136.64,123.01 155.59,108.89 192,114.33 C193.64,114.58 195.22,115.17 197.22,115.72 z" />
<path fill="#dfdfdf" d="M769.8,281.31 C768.44,282.54 767.02,284.05 765.51,284.16 C761.4,284.45 757.21,284.46 753.1,284.02 C747.67,283.44 744.35,280.43 742.55,274.92 C724.13,218.43 705.51,162 686.97,105.54 C685.04,99.67 685.62,97.53 691.42,96.2 C697.08,94.91 703.14,94.83 708.99,95.09 C712.45,95.25 713.35,97.92 710.66,100.68 C704.34,107.17 704.36,114.58 707.26,122.49 C712.58,137.03 717.9,151.56 723.16,166.13 C726.27,174.74 730.66,182.14 740.03,185.2 C742.82,186.11 743,187.81 741.53,190.18 C736.83,197.77 737.29,205.61 740.34,213.67 C745.3,226.75 750.16,239.86 754.91,253.01 C758.54,263.03 761.74,273.25 769.8,281.31 z" />
<path fill="#dfdfdf" d="m 613.28,232.72 c 3.09,-8.66 6.3,-16.88 8.98,-25.27 2.21,-6.91 2.04,-13.83 -2.23,-20.14 -1.78,-2.63 -1.37,-4.28 1.88,-4.96 7.84,-1.66 12.31,-7.12 14.95,-14.1 6.35,-16.81 12.49,-33.7 18.56,-50.62 2.43,-6.77 1.24,-13.02 -3.32,-18.76 -3.05,-3.84 -2.22,-6.59 2.5,-6.64 5.99,-0.06 12.09,1.08 17.96,2.44 3.23,0.75 4.24,3.42 3,7.13 -19.3,57.41 -38.45,114.88 -57.7,172.31 -0.51,1.52 -1.37,3.11 -2.51,4.22 -4.83,4.71 -17.61,5.22 -23.58,0.9 11.74,-13.23 14.84,-30.48 21.5,-46.52 z" />
<path fill="#dfdfdf" d="M652.52,202.43 C662.52,172.87 672.36,143.67 682.2,114.47 C682.63,114.48 683.07,114.48 683.5,114.49 C696.47,153.32 709.43,192.15 722.65,231.72 C695.79,231.72 669.8,231.72 642.9,231.72 C646.13,221.85 649.25,212.33 652.52,202.43 M686.96,162.53 C685.78,159.42 684.6,156.3 682.96,152 C675.12,175.04 667.74,196.68 660.22,218.76 C675.61,218.76 690.14,218.76 705.63,218.76 C699.35,199.86 693.27,181.57 686.96,162.53 z" />
<path fill="#dfdfdf" d="M645.8,259.08 C643.83,266.65 645.21,272.62 651.62,277.06 C652.98,278 653.7,279.88 654.71,281.33 C653.09,282.31 651.42,284.21 649.88,284.11 C643.83,283.74 637.74,283.12 631.83,281.82 C628.59,281.12 627.36,278.36 628.62,274.7 C632.41,263.69 636.06,252.62 639.6,241.52 C640.44,238.86 641.76,237.89 644.58,237.91 C669.9,238.03 695.23,238.06 720.56,237.98 C723.45,237.97 724.78,239.12 725.6,241.64 C729.21,252.72 732.84,263.79 736.58,274.83 C737.7,278.15 736.87,280.9 733.63,281.55 C727.55,282.79 721.34,283.43 715.15,283.9 C713.86,284 711.7,282.59 711.29,281.41 C710.92,280.37 712.06,278.06 713.19,277.36 C722.69,271.39 720.35,263.12 717.92,254.75 C717.16,252.16 715.69,251.04 712.87,251.05 C692.71,251.11 672.55,251.14 652.39,250.92 C646.57,250.86 647.18,255.37 645.8,259.08 z" />
<path fill="#dfdfdf" d="M640.44,336.59 C645.46,331.09 651.13,328.31 658.41,329.82 C665.39,331.26 670.58,336.98 672.06,343.96 C673.53,350.85 672.88,357.49 671.39,364.21 C669.46,372.94 663.36,377.49 653.54,377.34 C645.47,377.22 638.63,371.28 637.22,363.31 C636.74,360.58 635.51,357.92 635.48,355.21 C635.44,352.94 636.68,350.67 637.29,348.38 C638.3,344.56 639.27,340.74 640.44,336.59 M645,366.98 C644.22,363.27 643.44,359.55 642.56,355.35 C640.26,360.12 641.51,366.29 645.31,369.77 C646.47,370.64 647.63,371.51 648.8,372.39 C649.05,372.03 649.3,371.68 649.55,371.32 C648.08,370.13 646.6,368.94 645,366.98 M662.13,361.24 C662.18,360.08 662.73,358.57 662.2,357.84 C660.14,354.98 660.7,352.51 661.65,349.29 C662.35,346.93 661.36,342.98 659.61,341.3 C657.98,339.72 654.01,339.17 651.71,339.98 C647.33,341.53 646.99,345.79 647.38,350.02 C647.59,352.19 647.63,354.47 647.19,356.58 C646.27,360.98 648.97,367.08 652.58,368.06 C657.33,369.35 660.06,367.61 662.13,361.24 M644.93,341.64 C645.93,340.19 646.93,338.73 648.26,336.8 C642.45,339.52 640.26,346.22 642.62,351.16 C643.24,348.5 643.96,345.44 644.93,341.64 M651.12,373.15 C653.83,373.15 656.54,373.15 659.26,373.15 C659.23,372.66 659.2,372.17 659.17,371.68 C656.22,372.07 653.27,372.47 651.12,373.15 z" />
<path fill="#dfdfdf" d="M567.74,333.76 C567,332.64 566.42,331.92 564.79,329.89 C575.05,331 584.12,327.75 592.8,332.11 C598.41,334.92 601.06,339.79 602.38,345.84 C603.76,352.13 602.9,358.2 601.79,364.3 C600.42,371.76 594.37,376.99 586.77,377.23 C580.3,377.44 573.82,377.27 568.32,377.27 C568.16,362.49 567.34,348.32 567.74,333.76 M577.83,341.89 C577.01,348.14 579.09,354.42 577.2,360.79 C576.55,362.99 578.29,367.96 579.7,368.27 C582.71,368.94 587.32,368.46 589.21,366.48 C591.31,364.29 591.22,359.91 591.85,356.44 C592.14,354.82 591.69,353.08 591.86,351.43 C592.27,347.5 592.42,343.61 588.65,341.15 C585.23,338.91 581.57,337.56 577.83,341.89 M585.96,336.14 C587.32,336.65 588.68,337.16 590.04,337.68 C590.13,337.18 590.22,336.68 590.3,336.18 C584.77,332.6 578.4,335.34 572.81,334.48 C572.81,340.31 572.81,345.61 572.81,350.92 C573.26,350.89 573.71,350.87 574.15,350.85 C574.15,346.15 574.15,341.46 574.15,336.14 C578.19,336.14 581.65,336.14 585.96,336.14 M596.67,365.97 C597.16,362.8 597.66,359.64 598.15,356.48 C597.66,356.41 597.18,356.35 596.69,356.28 C595.69,360.55 594.7,364.81 593.4,370.39 C594.86,368.54 595.6,367.61 596.67,365.97 M594.67,343.17 C595.44,346.12 596.21,349.06 597.33,353.34 C598.86,345.19 596.9,340.52 592.06,339.13 C592.84,340.4 593.51,341.49 594.67,343.17 z" />
<path fill="#dfdfdf" d="M375.04,338.2 C379.15,331.18 386.37,328.13 393.99,329.94 C401.13,331.63 406,337.94 407.44,344.94 C408.77,351.33 408.76,357.4 407.21,363.62 C404.93,372.75 397.63,378.11 388.49,377.27 C379.4,376.44 374,369.9 372.67,360.58 C371.56,352.85 372.21,345.69 375.04,338.2 M399.33,337.77 C398.06,337.05 396.79,336.33 395.53,335.61 C395.33,335.94 395.13,336.28 394.93,336.61 C396.24,337.45 397.54,338.3 399.1,339.87 C400.02,343.6 400.94,347.33 401.96,351.45 C404.06,345.83 403.29,341.93 399.33,337.77 M380.1,338.07 C376.9,341.8 376.47,346.07 377.46,351.35 C379.02,346.64 380.35,342.63 382.21,338.17 C382.86,337.62 383.51,337.07 384.16,336.52 C383.9,336.21 383.64,335.9 383.39,335.59 C382.51,336.31 381.63,337.04 380.1,338.07 M385.65,339.8 C384.64,343.09 383.41,346.33 382.7,349.68 C382.23,351.9 382.75,354.31 382.39,356.57 C381.68,361.09 382.91,365.11 386.51,367.52 C388.16,368.63 391.79,368.47 393.57,367.35 C397.65,364.8 398.33,360.65 396.72,356.04 C396.26,354.74 396.91,353.09 396.73,351.64 C396.3,348.24 396.28,344.62 395,341.54 C393.38,337.68 389.68,338.45 385.65,339.8 z" />
<path fill="#dfdfdf" d="M351.07,329.91 C360.8,333.22 363.68,337.7 364.93,347.48 C365.54,352.27 365.73,356.7 364.87,361.48 C363.22,370.64 356.27,377.35 347.43,377.39 C337.91,377.42 332.16,371.52 329.96,361.78 C328.48,355.19 329.8,349.2 330.97,343.06 C332.68,334.16 340.07,329.4 351.07,329.91 M339.59,338.6 C343.48,334.81 348.04,334.54 353.12,336.49 C353.24,336.17 353.36,335.86 353.05,334.85 C347.88,333.25 342.89,332.64 338.4,337.79 C338.2,338.12 337.99,338.45 337.12,339.06 C334.18,342.61 334.14,346.57 335.42,350.69 C336.5,346.98 337.57,343.26 338.91,339.3 C338.91,339.3 338.99,338.94 339.59,338.6 M353.18,353.58 C353.54,350.1 354.63,346.47 353.96,343.2 C353.59,341.41 350.31,339.23 348.21,339.07 C346.03,338.9 341.84,340.8 341.72,342.09 C341.01,349.68 340.34,357.5 341.47,364.97 C342.21,369.89 349.49,370.97 352.71,366.03 C355.26,362.11 355.32,358.35 353.18,353.58 M336.07,360.29 C335.82,358.74 335.57,357.19 335.32,355.64 C334.71,355.77 334.1,355.89 333.49,356.02 C334.14,359.9 334.79,363.78 335.44,367.66 C336.06,367.55 336.67,367.43 337.29,367.31 C336.91,365.28 336.53,363.24 336.07,360.29 M338.4,368.44 C338.44,369.25 338.48,370.06 338.52,370.87 C339.09,370.81 339.67,370.76 340.24,370.7 C339.95,370.07 339.67,369.43 338.4,368.44 M341.02,372.24 C341.51,372.37 342,372.5 342.5,372.64 C342.53,372.38 342.61,371.89 342.59,371.89 C341.97,371.76 341.33,371.67 341.02,372.24 z" />
<path fill="#dfdfdf" d="M447.09,357.07 C439.38,351.28 437.12,344.82 440.08,338.02 C442.97,331.38 451.18,327.63 459.98,329.15 C463.24,329.72 466.44,330.69 469.6,331.68 C473,332.75 472.69,334.89 470.48,336.81 C468.37,338.64 465.91,340.05 463.65,340.25 C460.61,339.51 457.6,338.49 454.52,338.13 C450.83,337.69 448.8,339.99 448.8,343.47 C448.8,347.05 451.53,347.88 454.62,348.28 C457.83,348.7 461.19,349.08 464.13,350.32 C470.32,352.92 473.56,358.46 472.81,364.02 C471.95,370.41 466.54,375.87 460.29,377.29 C451.96,379.17 444.74,375.35 436.59,373.59 C439.8,370.03 442.61,366.91 445.44,363.77 C450.78,369.73 456.67,370.81 461.07,366.24 C462.18,365.08 462.19,362.45 461.92,360.61 C461.82,359.95 459.42,359.5 458.02,359.2 C454.51,358.45 450.97,357.84 447.09,357.07 M448.35,337.22 C447.66,337 446.68,336.37 446.31,336.62 C441.18,340.13 442.35,349.24 448.21,351.97 C444.49,342.4 444.49,342.4 448.35,337.22 M456.4,354.66 C458.57,354.87 460.75,355.08 462.93,355.29 C463,354.85 463.06,354.41 463.13,353.97 C458.33,353.31 453.54,352.64 448.74,351.98 C448.61,352.6 448.49,353.21 448.37,353.83 C450.75,354.17 453.14,354.52 456.4,354.66 M449.87,334.65 C449.51,334.87 449.15,335.09 448.79,335.31 C449.26,335.53 449.74,335.75 450.21,335.96 C450.32,335.62 450.43,335.29 449.87,334.65 z" />
<path fill="#dfdfdf" d="M549.58,373.62 C537.31,382.11 523.52,375.88 521.82,361.54 C521.56,359.29 520.56,357.14 520.08,354.9 C519.85,353.87 519.66,352.56 520.08,351.68 C523.36,344.79 522.32,338 519.77,330.63 C524.11,330.63 528.36,330.63 532.31,330.63 C532.01,335.99 531.02,341.45 531.62,346.74 C532.09,350.93 532.46,354.74 531.77,359.03 C531.35,361.71 533.6,365.88 535.96,367.71 C540.37,371.15 546.93,366.87 546.22,360.32 C545.62,354.69 547.32,349.44 546.83,344 C546.44,339.64 545.92,335.3 545.43,330.64 C549.09,330.64 553.22,330.64 557.42,330.64 C556.05,338.43 556.87,345.66 557.49,353.14 C558.01,359.49 557.63,368.66 549.58,373.62 M527.16,335.18 C524.09,340.25 526.28,345.41 525.76,350.52 C526.38,350.54 527.01,350.55 527.63,350.57 C527.63,345.71 527.63,340.84 527.16,335.18 M552.15,344.4 C552.15,341.23 552.15,338.07 552.15,334.9 C551.64,334.93 551.13,334.96 550.62,334.98 C550.62,340.25 550.62,345.52 550.62,350.8 C551.03,350.82 551.44,350.84 551.85,350.86 C551.95,349.02 552.04,347.18 552.15,344.4 M525.81,359.42 C526.11,363.23 525.69,367.36 529.99,369.82 C528.9,364.83 527.92,360.29 526.93,355.75 C526.63,355.79 526.33,355.83 526.03,355.88 C525.93,356.75 525.83,357.63 525.81,359.42 z" />
<path fill="#dfdfdf" d="M237.14,330.52 C239.03,335.39 240.41,340.25 242.01,345.05 C244.79,353.44 247.67,361.8 250.59,370.14 C251.34,372.27 252.39,374.29 253.49,376.8 C248.94,376.8 244.63,376.8 239.97,376.8 C240.26,375.71 240.35,374.75 240.75,373.93 C242.34,370.61 240.64,369.16 237.67,368.94 C234.53,368.69 231.35,368.79 228.2,368.98 C221.75,369.38 220.97,370.71 223.54,376.9 C219.09,376.9 214.77,376.9 210.73,376.9 C212.88,371.17 214.91,365.56 217.09,360.01 C219.57,353.66 222.48,347.46 224.6,340.99 C225.62,337.85 225.25,334.25 225.53,330.48 C229.19,330.48 232.95,330.48 237.14,330.52 M230.99,350.52 C229.75,353.47 228.5,356.42 226.97,360.05 C230.94,360.05 233.48,360.05 236.85,360.05 C235.41,355.16 234.14,350.81 232.58,345.53 C231.88,347.61 231.52,348.69 230.99,350.52 M225.96,349.29 C225.77,350.42 225.59,351.55 225.41,352.68 C228.54,347.65 230.94,342.49 232.99,337.19 C233.31,336.37 232.03,334.93 231.32,333.41 C229.3,339.25 227.7,343.89 225.96,349.29 M220.84,361.14 C220.23,362.94 219.63,364.73 218.9,366.89 C221.95,366.25 224.4,365.74 226.85,365.23 C219.56,363.68 224.86,358.7 223,355.47 C222.34,357.1 221.68,358.73 220.84,361.14 M243.2,360.29 C242.85,358.86 242.5,357.42 241.82,354.62 C240.05,361.61 240.85,365.27 244.42,367.81 C243.99,365.27 243.64,363.2 243.2,360.29 z" />
<path fill="#dfdfdf" d="M194.97,370.59 C195.54,372.86 196.12,374.67 196.81,376.84 C192.19,376.84 187.68,376.84 183.09,376.84 C185.71,369.66 186.05,362.67 183.69,355.58 C183.42,354.77 183.72,353.72 183.93,352.82 C184.07,352.2 184.61,351.68 184.79,351.06 C187.85,340.95 184.98,338.24 173.42,340.91 C173.24,337.13 173.06,333.43 172.87,329.52 C184.15,329.52 195.3,329.52 206.48,329.52 C206.48,333.42 206.48,337.07 206.48,340.93 C203.43,340.32 200.79,339.47 198.12,339.41 C197.11,339.39 195.18,341.19 195.18,342.15 C195.2,345.72 195.83,349.29 196.27,352.86 C196.34,353.49 196.83,354.12 196.76,354.72 C196.21,359.86 195.58,365 194.97,370.59 M192.44,334.07 C187.37,334.07 182.31,334.07 177.25,334.07 C177.28,334.65 177.32,335.22 177.35,335.8 C185.58,336.57 193.8,337.03 202,336.09 C202.02,335.58 202.04,335.07 202.06,334.57 C199.17,334.42 196.29,334.27 192.44,334.07 z" />
<path fill="#dfdfdf" d="M292.14,329.09 C303.35,329.09 314.56,329.09 326.04,329.09 C325.58,333.34 325.19,336.99 324.77,340.9 C322.3,340.35 319.86,339.65 317.38,339.3 C314.54,338.91 312.8,340.21 313.12,343.25 C313.45,346.31 314.04,349.35 314.53,352.39 C314.66,353.18 315.04,353.98 314.97,354.74 C314.43,360.23 313.67,365.7 313.31,371.2 C313.2,372.89 314.11,374.65 314.66,376.78 C310.29,376.78 305.96,376.78 301.7,376.78 C303.09,369.47 305.23,362.18 301.24,354.96 C300.91,354.36 301.19,353.37 301.33,352.58 C302.12,348.49 302.96,344.41 304.08,338.86 C299.34,339.53 296.05,340 292.25,339.95 C291.87,335.99 292.01,332.54 292.14,329.09 M310.62,333.92 C308.15,333.92 305.67,333.92 303.19,333.92 C303.15,334.38 303.11,334.83 303.07,335.29 C311.07,338.36 304.25,346.16 308.32,350.63 C308.86,348.21 308.86,345.83 308.86,343.46 C308.85,335.78 308.85,335.79 316.66,336.07 C318.1,336.12 319.54,336.08 320.98,336.08 C320.98,335.37 320.99,334.67 320.99,333.96 C317.85,333.96 314.71,333.96 310.62,333.92 z" />
<path fill="#dfdfdf" d="M290.03,341.01 C287.69,340.54 285.36,340.03 283.01,339.61 C279.79,339.03 277.63,340.02 278.04,343.69 C278.38,346.71 279.14,349.69 279.66,352.7 C279.79,353.47 279.96,354.39 279.67,355.05 C276.47,362.27 278.35,369.41 279.73,376.89 C275.53,376.89 271.17,376.89 267.57,376.89 C267.79,371.99 268.62,367.12 268.05,362.43 C267.37,356.76 267.59,351.33 268.2,345.69 C268.87,339.53 266.01,337.88 259.98,339.92 C259.22,340.18 258.53,340.63 257.35,341.23 C257.01,337.15 256.7,333.48 256.35,329.27 C267.08,329.27 277.88,329.27 289.15,329.7 C289.76,333.77 289.9,337.39 290.03,341.01 M273.96,342.14 C273.37,332.7 281.37,337.75 285.07,334.76 C277.17,334.76 269.26,334.76 261.36,334.76 C261.36,335.21 261.35,335.65 261.35,336.1 C264.09,336.1 266.86,335.82 269.55,336.16 C274.09,336.73 271.56,340.59 272.13,343.78 C272.13,346.16 272.13,348.54 272.13,350.91 C272.7,350.9 273.28,350.89 273.85,350.88 C273.85,348.24 273.85,345.6 273.96,342.14 z" />
<path fill="#dfdfdf" d="M498,330.05 C503.13,330.04 507.77,330.04 512.79,330.04 C512.43,333.66 512.09,337.16 511.75,340.55 C511.1,340.7 510.77,340.86 510.46,340.83 C507.49,340.55 504.52,340.23 501.55,339.93 C501.49,343.62 501.34,347.31 501.41,350.99 C501.43,352.32 502.58,353.89 502.17,354.93 C499.33,362.11 501.3,369.14 502.17,376.68 C498.17,376.68 493.91,376.68 489.84,376.68 C491.32,369.46 492.71,362.46 489.49,355.42 C489.04,354.44 489.65,352.98 489.75,351.74 C490.02,348.34 490.59,344.92 490.34,341.56 C490.28,340.66 487.72,339.34 486.27,339.28 C483.91,339.18 481.51,339.97 478.73,340.45 C478.73,336.85 478.73,333.31 478.73,330.05 C484.99,330.05 491.25,330.05 498,330.05 M503.3,335.06 C496.61,335.06 489.92,335.06 483.23,335.06 C485.41,335.91 487.57,336.06 489.7,335.88 C493.85,335.53 495.45,337.3 495.06,341.42 C494.81,344.06 495.01,346.76 495.01,349.43 C495.95,345.58 495.31,340.83 497.37,338.23 C499.18,335.94 504.03,336.07 507.8,335.06 C506.49,335.06 505.36,335.06 503.3,335.06 M496.83,363.5 C496.83,361.28 496.83,359.06 496.83,356.84 C496.33,356.87 495.82,356.9 495.32,356.92 C495.32,362.35 495.32,367.77 495.32,373.2 C495.82,373.21 496.31,373.23 496.81,373.24 C496.81,370.31 496.81,367.38 496.83,363.5 z" />
<path fill="#dfdfdf" d="M157.91,364.85 C148.47,370.34 141.1,366.51 140.33,356.09 C140.16,353.78 139.97,351.43 140.22,349.14 C140.85,343.32 145.52,339.3 150.99,339.59 C156.49,339.89 161.4,344.28 161.1,349.84 C160.83,354.79 159.21,359.68 157.91,364.85 z" />
<path fill="#dfdfdf" d="M687.75,350.26 C688.62,342.8 691.94,339.58 698.13,339.74 C704.16,339.89 708.02,344.15 708.19,350.95 C708.24,353.1 708.15,355.26 707.99,357.4 C707.49,363.87 704.09,367.07 697.79,367.09 C691.69,367.1 688.24,363.69 687.85,357.17 C687.72,355.02 687.77,352.87 687.75,350.26 z" />
<path fill="#dfdfdf" d="M624.55,357.23 C624.47,363.89 622.45,370.52 626.08,376.67 C621.71,376.67 617.46,376.67 613.37,376.67 C615.75,368.59 613.84,361.19 613.72,353.74 C613.6,346.24 614.93,338.67 612.84,330.68 C617.29,330.68 621.64,330.68 626.12,330.68 C624.48,338.13 623.5,345.48 626.16,352.9 C626.54,353.97 625.34,355.6 624.55,357.23 M618.96,359.77 C618.99,362.41 619.09,365.05 619.04,367.69 C618.98,371.43 619.37,373.37 620.24,373.65 C620.24,367.85 620.24,362.01 620.24,355.35 C619.42,356.43 619.14,356.64 619.1,356.88 C619,357.53 619,358.19 618.96,359.77 z" />
<path fill="#dfdfdf" d="M298.81,224.15 C299.27,224.8 299.48,225.61 299.6,226.73 C299.2,226.14 298.88,225.23 298.81,224.15 z" />
<path fill="#dfdfdf" d="M433.97,434.89 C434.53,434.28 435.45,433.73 436.7,433.19 C436.13,433.79 435.23,434.37 433.97,434.89 z" />
<path fill="#dfdfdf" d="M294.18,224.89 C293.81,224.49 293.66,223.97 293.64,223.19 C293.98,223.56 294.18,224.16 294.18,224.89 z" />
<path fill="#dfdfdf" d="M295.22,231.86 C294.79,231.5 294.58,230.99 294.45,230.22 C294.83,230.54 295.14,231.13 295.22,231.86 z" />
<path fill="#dfdfdf" d="M357.87,270.8 C357.49,271.2 356.98,271.39 356.21,271.48 C356.55,271.11 357.14,270.85 357.87,270.8 z" />
<path fill="#dfdfdf" d="M353.35,335.67 C353.36,335.86 353.24,336.17 353.02,336.28 C352.94,336.07 353.2,335.8 353.35,335.67 z" />
<path fill="#dfdfdf" d="M572.34,221.89 C572.17,227.78 572.52,233.35 571.59,238.69 C569.01,253.41 558.77,263.93 541.92,265.17 C521.13,266.69 500.14,265.53 478.97,265.53 C478.97,240.96 478.97,216.24 478.97,191.13 C480.42,191.02 481.86,190.82 483.29,190.83 C499.76,190.83 516.25,190.46 532.71,191.09 C539.37,191.34 546.27,192.95 552.51,195.37 C564.16,199.88 570.49,209.13 572.34,221.89 M555.3,219.62 C551.89,209.12 543.63,205.45 533.67,205.08 C521.18,204.62 508.67,204.84 496.18,204.8 C495.58,204.8 494.99,205.18 494.54,205.33 C494.54,220.69 494.54,235.75 494.54,250.9 C508.58,250.9 522.26,251.42 535.88,250.75 C548.63,250.11 555.82,242.09 556.42,229.32 C556.56,226.37 555.89,223.38 555.3,219.62 z" />
<path fill="#dfdfdf" d="M551.93,117.89 C566.67,126.19 573.05,140.22 569.73,156.44 C566.67,171.33 552.76,184.08 536.84,184.71 C517.76,185.47 498.62,184.89 479.12,184.89 C479.12,161.13 479.12,137.61 479.12,113.87 C479.63,113.72 480.23,113.38 480.84,113.38 C498.48,113.4 516.12,113.11 533.75,113.69 C539.73,113.89 545.64,116.32 551.93,117.89 M553.54,142.32 C550.7,134.6 545.02,129.15 537.14,128.64 C523.11,127.75 508.98,128.39 494.64,128.39 C494.57,129.45 494.41,130.76 494.4,132.06 C494.36,144.06 494.24,156.06 494.49,168.05 C494.51,169.05 497,170.81 498.37,170.84 C509.2,171.07 520.04,171.16 530.86,170.94 C548.24,170.58 556.7,160.18 553.54,142.32 z" /></svg>