<svg width="50" height="72" viewBox="0 0 50 72" fill="none" xmlns="http://www.w3.org/2000/svg">
<g clip-path="url(#clip0_4163_3130)">
<path d="M48.7557 0.386963H1.24556V71.6177H48.7557V0.386963Z" fill="black"/>
<path d="M48.4046 0.77288V71.2296H1.59539V0.77288H48.4046ZM49.1044 0H48.4046H1.59539H0.89566V0.77288V71.2296V72H1.59539H48.4046H49.1044V71.2296V0.77288V0Z" fill="white"/>
<path d="M45.7102 3.27661H3.95091V14.9593H45.7102V3.27661Z" fill="white"/>
<path d="M45.7162 17.5078H3.93265V60.4576H45.7162V17.5078Z" fill="white"/>
<path d="M3.94118 68.6896V62.9868H12.3295V64.3221H7.31107V65.1373H11.5581V66.4665H7.31107V67.3604H12.5238V68.6896H3.94118Z" fill="white"/>
<path d="M19.6512 64.6486C19.599 64.4575 19.4107 64.3317 19.1653 64.2639C18.926 64.1901 18.6296 64.1575 18.2943 64.1575C17.5545 64.1575 17.2216 64.2784 17.2216 64.4901C17.2216 65.3331 23.1365 64.8046 23.1365 66.8789C23.1365 68.1997 21.1479 68.8444 18.3222 68.8444C15.6083 68.8444 13.8384 67.965 13.7667 66.9357H16.9932C17.0649 67.1414 17.2666 67.2877 17.5533 67.3845C17.8242 67.4788 18.1777 67.5284 18.5117 67.5284C19.3536 67.5284 19.9136 67.3796 19.9136 67.1099C19.9136 66.2451 13.9938 66.8378 13.9938 64.6655C13.9938 63.4536 15.8805 62.8464 18.4534 62.8464C21.3082 62.8464 22.6093 63.6519 22.8559 64.6486H19.6512Z" fill="white"/>
<path d="M28.1841 65.4602H29.5083C30.5518 65.4602 31.1118 65.309 31.1118 64.9171C31.1118 64.5155 30.5397 64.322 29.7549 64.322H28.1841V65.4602ZM28.1841 66.7035V68.6908H24.813V62.9879H29.6711C33.0944 62.9879 34.2242 63.5104 34.2242 64.6183C34.2242 65.2775 33.697 65.8254 32.4967 66.0165C33.5816 66.2343 34.24 66.3685 34.24 67.5188C34.24 68.2602 34.195 68.5178 34.5959 68.5178V68.6908H31.1799C31.0948 68.5638 31.011 68.1997 31.011 67.6941C31.011 66.9454 30.7814 66.7048 29.2106 66.7048H28.1841V66.7035Z" fill="white"/>
<path d="M39.6653 64.3221V65.2764H41.0696C41.7414 65.2764 42.2273 65.1034 42.2273 64.778C42.2273 64.3317 41.5628 64.3221 40.8558 64.3221H39.6653ZM39.6653 66.3093V67.3604H41.1364C41.9722 67.3604 42.5979 67.2636 42.5979 66.8378C42.5979 66.3395 41.8143 66.3081 40.738 66.3081H39.6653V66.3093ZM36.2966 68.6896V62.9868H41.213C43.5284 62.9868 45.3725 63.2964 45.3725 64.4249C45.3725 65.0127 44.6849 65.4409 44.0301 65.6622C45.1429 65.8231 45.7382 66.3565 45.7382 66.9685C45.7382 68.2397 43.9876 68.6884 41.3102 68.6884H36.2966V68.6896Z" fill="white"/>
<path d="M26.3739 43.8884C25.6766 41.3182 24.2929 39.816 22.3201 39.2911C23.547 37.8614 24.2443 35.6504 23.3053 32.1791C21.986 27.3326 18.6367 24.9837 14.5659 26.0638L5.30902 28.5143L5.11951 28.5627L12.7874 56.8085L18.9818 55.1647C18.9818 55.1647 16.4695 45.9156 16.0285 44.2876L16.3298 44.2077C17.2762 43.9622 17.9686 43.9646 18.4302 44.2331C19.2502 44.7012 19.6293 46.1139 20.0629 47.7456L20.4092 49.047C20.8125 50.6194 21.2401 52.2474 22.3067 53.6311L22.7222 54.1766L29.8058 52.3079L28.8546 51.0959C28.3735 50.4887 27.1854 46.8771 26.3739 43.8884ZM16.2399 38.8411C16.2399 38.8411 15.4454 39.054 14.6619 39.2596C14.199 37.5566 13.1385 33.6426 12.6757 31.9384C13.4543 31.7376 14.2549 31.5235 14.2549 31.5235C15.0045 31.3276 16.2581 30.9938 17.1741 34.3756C17.3503 35.0324 18.1472 38.3355 16.2399 38.8411Z" fill="black"/>
<path d="M34.1329 21.3709L25.792 23.5783L24.7897 23.842L32.4552 52.089L38.7856 50.4187C38.7856 50.4187 36.3183 41.3388 35.8761 39.7205C36.944 39.4326 38.5973 39.002 38.5973 39.002C43.5343 37.6885 45.4234 33.8773 43.8951 28.27C41.915 20.9597 37.4967 20.4856 34.1329 21.3709ZM36.7144 33.9076C36.7144 33.9076 35.4947 34.2317 34.4609 34.5051C34.0102 32.8347 32.9253 28.8603 32.4771 27.1887C33.3955 26.9468 34.3989 26.6819 34.3989 26.6819C35.4898 26.3916 36.7362 26.3916 37.7251 30.0311C38.1964 31.7607 37.7032 33.6451 36.7144 33.9076Z" fill="black"/>
<path d="M5.94207 12.4398H5.1087V5.80682H6.64787C6.93457 5.80682 7.16174 5.95318 7.3306 6.24709C7.49703 6.541 7.58085 6.97401 7.58085 7.54248C7.58085 7.96581 7.52497 8.32503 7.41078 8.61774C7.29901 8.91165 7.1095 9.09429 6.84103 9.16928V9.18742C6.88598 9.19951 6.94793 9.21766 7.02811 9.24306C7.10829 9.26846 7.18968 9.32168 7.26743 9.40876C7.34639 9.49464 7.41442 9.62163 7.47395 9.78976C7.53347 9.95788 7.56141 10.1925 7.56141 10.4925C7.56141 10.5965 7.56384 10.7441 7.56506 10.9327C7.56627 11.1214 7.57113 11.3186 7.57964 11.5206C7.58571 11.7226 7.59786 11.9088 7.60879 12.0806C7.62215 12.2535 7.63673 12.3709 7.65617 12.4398H6.83981C6.78393 12.2366 6.75599 12.0262 6.75356 11.806C6.75235 11.5847 6.75235 11.3682 6.75235 11.1541C6.75235 10.9581 6.75235 10.7719 6.74992 10.5929C6.74749 10.4151 6.72805 10.2615 6.69282 10.1296C6.65759 9.99779 6.6005 9.89136 6.51667 9.81153C6.43407 9.7317 6.3138 9.69179 6.15587 9.69179H5.93964V12.4398H5.94207ZM5.94207 8.67096H6.31137C6.39276 8.67096 6.46201 8.64072 6.51667 8.58024C6.57134 8.51977 6.61507 8.44115 6.64787 8.3456C6.68067 8.25125 6.70376 8.14603 6.71833 8.0287C6.73048 7.91259 6.73777 7.80131 6.73777 7.69851C6.73777 7.37919 6.70011 7.15543 6.62358 7.02239C6.54826 6.89176 6.44621 6.82645 6.31137 6.82645H5.94207V8.67096Z" fill="black"/>
<path d="M7.88928 12.4399L8.9899 5.80688H10.0869L11.1681 12.4399H10.2922L10.0711 10.9691H8.93402L8.70807 12.4399H7.88928ZM9.49405 7.08292H9.4819L9.10045 9.94947H9.89494L9.49405 7.08292Z" fill="black"/>
<path d="M13.6014 5.80566V6.90753H12.6757V12.4386H11.8424V6.90753H10.9143V5.80566H13.6014Z" fill="black"/>
<path d="M13.9876 12.4399V5.80688H14.8198V12.4399H13.9876Z" fill="black"/>
<path d="M15.5256 12.4399V5.80688H16.6505L17.7098 10.4006H17.7208V5.80688H18.4983V12.4399H17.4013L16.3164 7.5885H16.3043V12.4399H15.5256Z" fill="black"/>
<path d="M21.0179 7.84498C21.0179 7.69258 21.013 7.54502 21.0033 7.40592C20.9936 7.26441 20.9729 7.14104 20.9365 7.03702C20.9025 6.933 20.8514 6.84834 20.7858 6.78423C20.7178 6.72013 20.6303 6.68868 20.521 6.68868C20.3922 6.68868 20.2926 6.75641 20.2234 6.89067C20.1529 7.02492 20.1019 7.20635 20.0679 7.43253C20.0351 7.6575 20.0156 7.91997 20.0108 8.21751C20.0035 8.51505 20.0011 8.82226 20.0011 9.14158C20.0011 9.66167 20.0108 10.0814 20.0302 10.3995C20.0497 10.7188 20.08 10.9655 20.1226 11.1397C20.1675 11.3139 20.2282 11.4312 20.3048 11.4917C20.3813 11.5533 20.4809 11.5836 20.5963 11.5836C20.6668 11.5836 20.7385 11.5715 20.8089 11.5485C20.8806 11.5231 20.9474 11.4917 21.0118 11.4566V9.98582H20.5599V8.9662H21.8439V12.3274C21.7893 12.3468 21.7152 12.3674 21.6204 12.3928C21.5269 12.4169 21.426 12.4411 21.3204 12.4665C21.2135 12.4919 21.1066 12.5101 20.9996 12.527C20.8927 12.5415 20.8004 12.5488 20.7178 12.5488C20.3692 12.5488 20.0898 12.4859 19.8832 12.3613C19.6755 12.2355 19.5176 12.0335 19.4119 11.7541C19.305 11.4759 19.2345 11.1167 19.2054 10.674C19.1726 10.2338 19.158 9.69795 19.158 9.0678C19.158 8.65051 19.1677 8.23928 19.1884 7.8353C19.2078 7.43132 19.2612 7.07089 19.3536 6.75641C19.4423 6.44073 19.582 6.18552 19.7727 5.98958C19.961 5.79364 20.227 5.69446 20.5696 5.69446C20.7713 5.69446 20.9535 5.74163 21.1175 5.83718C21.2815 5.93273 21.4188 6.06941 21.5317 6.25084C21.6447 6.43105 21.7249 6.65602 21.7796 6.92212C21.8342 7.18821 21.8537 7.49664 21.8427 7.84498H21.0179Z" fill="black"/>
<path d="M23.7961 5.80566H25.2976C25.4871 5.80566 25.6487 5.85163 25.7848 5.94234C25.916 6.03426 26.0265 6.16973 26.1115 6.34269C26.1966 6.51565 26.2598 6.72611 26.2974 6.97285C26.3351 7.21717 26.3569 7.49052 26.3569 7.79048C26.3569 7.97916 26.3424 8.18962 26.3193 8.4158C26.2962 8.64077 26.2464 8.85364 26.1699 9.04958C26.0909 9.24553 25.9803 9.40881 25.8334 9.54065C25.6864 9.67127 25.4908 9.7378 25.2478 9.7378H24.6295V12.4386H23.7973V5.80566H23.7961ZM24.6295 8.71818H25.0923C25.1555 8.71818 25.2138 8.69278 25.2648 8.64077C25.3158 8.58876 25.3608 8.51982 25.396 8.43757C25.4337 8.35532 25.4616 8.26098 25.4823 8.15454C25.5029 8.0469 25.5114 7.93683 25.5114 7.82676C25.5114 7.69251 25.5041 7.56309 25.492 7.44093C25.4786 7.31756 25.4555 7.21233 25.4203 7.1192C25.3851 7.02727 25.3353 6.95591 25.2758 6.9039C25.2162 6.85189 25.1409 6.82649 25.0462 6.82649H24.6283V8.71818H24.6295Z" fill="black"/>
<path d="M26.855 12.4399V5.80688H29.0283V6.82772H27.6872V8.46177H28.9239V9.48139H27.6872V11.4202H29.0733V12.4411H26.855V12.4399Z" fill="black"/>
<path d="M29.6199 12.4399V5.80688H30.7448L31.8029 10.4006H31.8151V5.80688H32.5913V12.4399H31.4956L30.4095 7.5885H30.3974V12.4399H29.6199Z" fill="black"/>
<path d="M33.3094 5.80566H34.6979C34.9712 5.80566 35.1911 5.87944 35.36 6.0258C35.5288 6.17336 35.6612 6.38744 35.7536 6.66926C35.8483 6.95107 35.9127 7.297 35.9431 7.70218C35.9759 8.10979 35.9929 8.57062 35.9929 9.08587C35.9929 9.25762 35.9929 9.4584 35.9929 9.687C35.9929 9.91681 35.9832 10.1575 35.9674 10.4079C35.9479 10.6607 35.9151 10.9062 35.8629 11.1481C35.8155 11.39 35.739 11.6065 35.6418 11.7964C35.5422 11.9851 35.4134 12.1399 35.2555 12.2596C35.0964 12.3794 34.8996 12.4386 34.6651 12.4386H33.3094V5.80566ZM34.1391 11.419H34.5424C34.6687 11.419 34.7683 11.3791 34.8485 11.2957C34.9287 11.2122 34.9907 11.0791 35.0332 10.8965C35.0757 10.7127 35.1073 10.4744 35.1231 10.1829C35.1401 9.89262 35.1486 9.53944 35.1486 9.12215C35.1486 8.81494 35.1437 8.52465 35.1389 8.24888C35.134 7.97432 35.1134 7.73 35.0745 7.51834C35.0393 7.30788 34.9797 7.13976 34.9008 7.01397C34.823 6.88818 34.7113 6.82649 34.5691 6.82649H34.1379V11.419H34.1391Z" fill="black"/>
<path d="M36.6622 12.4399V5.80688H37.4955V12.4399H36.6622Z" fill="black"/>
<path d="M38.1989 12.4399V5.80688H39.3238L40.3819 10.4006H40.3941V5.80688H41.1728V12.4399H40.0746L38.9873 7.5885H38.9752V12.4399H38.1989Z" fill="black"/>
<path d="M43.6923 7.84498C43.6923 7.69258 43.6874 7.54502 43.6777 7.40592C43.668 7.26441 43.6473 7.14104 43.6109 7.03702C43.5756 6.933 43.5258 6.84834 43.459 6.78423C43.3922 6.72013 43.3047 6.68868 43.193 6.68868C43.0654 6.68868 42.9646 6.75641 42.8966 6.89067C42.8249 7.02492 42.7751 7.20635 42.7423 7.43253C42.7095 7.6575 42.69 7.91997 42.6827 8.21751C42.6803 8.51505 42.6755 8.82226 42.6755 9.14158C42.6755 9.66167 42.6852 10.0814 42.7034 10.3995C42.7228 10.7188 42.7532 10.9655 42.7957 11.1397C42.8407 11.3139 42.9002 11.4312 42.9779 11.4917C43.0533 11.5533 43.1541 11.5836 43.2695 11.5836C43.3387 11.5836 43.4092 11.5715 43.4833 11.5485C43.555 11.5231 43.6206 11.4917 43.685 11.4566V9.98582H43.2343V8.9662H44.5183V12.3274C44.4637 12.3468 44.3908 12.3674 44.2972 12.3928C44.2025 12.4169 44.1004 12.4411 43.9935 12.4665C43.8891 12.4919 43.7822 12.5101 43.6752 12.527C43.5683 12.5415 43.476 12.5488 43.3934 12.5488C43.0448 12.5488 42.7666 12.4859 42.5576 12.3613C42.3511 12.2355 42.192 12.0335 42.0851 11.7541C41.9782 11.4759 41.9089 11.1167 41.8785 10.674C41.8482 10.2338 41.8336 9.69795 41.8336 9.0678C41.8336 8.65051 41.8433 8.23928 41.864 7.8353C41.8834 7.43132 41.9381 7.07089 42.028 6.75641C42.1179 6.44073 42.2576 6.18552 42.4459 5.98958C42.6354 5.79364 42.9014 5.69446 43.2452 5.69446C43.4469 5.69446 43.6291 5.74163 43.7931 5.83718C43.9571 5.93273 44.0944 6.06941 44.2061 6.25084C44.3179 6.43105 44.4005 6.65602 44.4552 6.92212C44.5074 7.18821 44.5293 7.49664 44.5171 7.84498H43.6923Z" fill="black"/>
</g>
<defs>
<clipPath id="clip0_4163_3130">
<rect width="48.2087" height="72" fill="white" transform="translate(0.89566)"/>
</clipPath>
</defs>
</svg>
