<svg width="359" height="158" viewBox="0 0 359 158" fill="none" xmlns="http://www.w3.org/2000/svg">
<path d="M98.3649 133.838C97.2446 133.678 96.1171 133.547 95.0015 133.355C84.6067 131.579 75.1515 122.506 73.9289 110.933C73.32 105.163 73.9527 99.5843 76.8333 94.4831C81.4051 86.3944 88.3079 81.7159 97.6038 80.8418C103.612 80.2758 109.364 81.2263 114.559 84.4528C121.176 88.5604 125.603 94.3255 127.002 102.128C130.199 119.96 117.425 131.619 105.453 133.444C104.45 133.597 103.441 133.707 102.435 133.836H98.3673L98.3649 133.838ZM114.495 107.597C114.473 104.136 113.705 101.106 111.873 98.3758C106.421 90.256 95.4772 90.6668 90.2085 97.06C85.7128 102.515 85.5225 111.284 89.8184 116.906C94.8493 123.488 103.703 123.483 108.517 119.76C112.556 116.636 114.457 112.464 114.497 107.597H114.495Z" fill="white"/>
<path d="M0 24.1465C2.0742 24.1561 4.14601 24.1871 6.22021 24.1608C6.73162 24.1561 6.93143 24.3328 7.10269 24.7937C12.1835 38.4565 17.281 52.1121 22.3785 65.7677C22.4594 65.985 22.5497 66.1975 22.6901 66.539C22.8637 66.1163 22.985 65.8274 23.0992 65.536C28.3275 51.9521 33.5582 38.3681 38.7722 24.7794C38.953 24.3089 39.1718 24.1537 39.6714 24.1608C41.5624 24.1919 43.4558 24.1728 45.4158 24.1728C45.354 24.3758 45.3207 24.5214 45.266 24.66C38.7223 41.4608 32.1786 58.2592 25.6468 75.0624C25.4874 75.4732 25.2876 75.5878 24.8713 75.5807C23.3157 75.5568 21.76 75.552 20.2044 75.5807C19.731 75.5902 19.5241 75.4541 19.3504 74.9956C12.997 58.2998 6.62696 41.6041 0.259274 24.9059C0.190293 24.7268 0.0880106 24.5597 0 24.3853C0 24.3041 0 24.2253 0 24.1441V24.1465Z" fill="white"/>
<path d="M288.396 0.837891C288.437 0.876101 288.473 0.933418 288.52 0.952523C292.607 2.41648 294.99 5.43274 296.065 9.52369C297.431 14.718 297.026 19.8263 295.035 24.8152C294.286 26.6899 293.582 28.579 293.294 30.597C292.864 33.6013 293.275 36.5411 293.941 39.4643C293.984 39.6529 294.022 39.844 294.079 40.1067C291.719 39.7604 289.707 38.8577 288.049 37.2218C286.134 35.3327 285.19 32.9637 284.814 30.3534C284.141 25.6797 284.852 21.2305 287.086 17.0488C287.49 16.2918 287.864 15.518 288.294 14.7753C290.475 11.0115 290.587 7.12119 289.048 3.1186C288.756 2.35677 288.454 1.59733 288.156 0.837891C288.237 0.837891 288.316 0.837891 288.396 0.837891Z" fill="white"/>
<path d="M359 64.5139C358.962 64.5569 358.907 64.5927 358.891 64.6428C357.43 68.8269 354.362 71.2342 350.22 72.3089C345.147 73.6248 340.149 73.2403 335.273 71.2963C333.199 70.47 331.115 69.6747 328.869 69.4216C326.096 69.1111 323.384 69.4884 320.689 70.107C320.444 70.1619 320.199 70.2168 319.88 70.2885C320.456 66.7444 322.133 64.0553 325.249 62.3693C327.744 61.0223 330.461 60.7143 333.244 60.7453C336.662 60.7835 339.857 61.6481 342.863 63.2625C343.76 63.7425 344.666 64.2034 345.556 64.693C348.881 66.5247 352.335 66.742 355.891 65.5026C356.942 65.1372 357.965 64.6858 359 64.275V64.5163V64.5139Z" fill="white"/>
<path d="M176.83 81.735V132.828C176.63 132.837 176.421 132.854 176.211 132.854C172.86 132.854 169.511 132.844 166.159 132.868C165.693 132.871 165.453 132.704 165.215 132.329C158.911 122.37 152.596 112.421 146.283 102.469C146.181 102.309 146.069 102.156 145.864 101.855C146.043 112.277 146.219 122.532 146.395 132.821H133.981V81.7302C134.176 81.7183 134.366 81.6992 134.559 81.6992C137.889 81.6992 141.219 81.7063 144.551 81.6872C144.963 81.6872 145.189 81.8162 145.401 82.1649C151.868 92.6776 158.345 103.186 164.934 113.694C164.758 103.054 164.582 92.4149 164.406 81.7374H176.828L176.83 81.735Z" fill="white"/>
<path d="M207.175 132.856V81.747C207.324 81.7302 207.455 81.7016 207.588 81.7016C213.611 81.7016 219.634 81.661 225.657 81.7278C229.646 81.7708 233.578 82.3058 237.293 83.8629C243.478 86.4517 247.376 91.1874 249.608 97.3967C251.101 101.554 251.358 105.879 251.004 110.25C250.683 114.202 249.743 117.988 247.743 121.441C243.908 128.058 238.169 131.784 230.6 132.644C229.237 132.799 227.855 132.847 226.482 132.852C220.3 132.873 214.118 132.861 207.936 132.861H207.177L207.175 132.856ZM220.186 121.324C222.957 121.245 225.681 121.341 228.361 121.047C232.638 120.581 235.738 118.329 237.141 114.143C238.499 110.095 238.54 105.946 237.434 101.843C236.128 97.005 233.007 94.0174 227.969 93.4657C225.445 93.1887 222.876 93.3392 220.329 93.2986C220.293 93.2986 220.257 93.3296 220.188 93.363V121.324H220.186Z" fill="white"/>
<path d="M302.026 132.856C301.791 132.856 301.615 132.856 301.439 132.856C297.131 132.856 292.823 132.849 288.518 132.868C288.059 132.868 287.864 132.732 287.726 132.295C287.05 130.162 286.329 128.044 285.654 125.912C285.528 125.51 285.345 125.405 284.94 125.405C279.396 125.42 273.853 125.422 268.309 125.403C267.852 125.403 267.7 125.582 267.564 125.966C266.817 128.097 266.049 130.217 265.288 132.34C265.188 132.622 265.119 132.871 264.698 132.868C260.252 132.849 255.804 132.854 251.358 132.852C251.32 132.852 251.28 132.837 251.158 132.813C251.225 132.627 251.28 132.448 251.346 132.276C257.997 115.587 264.65 98.8988 271.289 82.2055C271.453 81.7947 271.66 81.6849 272.076 81.6873C275.147 81.704 278.218 81.7016 281.289 81.6873C281.648 81.6873 281.855 81.7541 282.005 82.1291C288.646 98.9514 295.299 115.769 301.95 132.589C301.972 132.641 301.983 132.699 302.029 132.854L302.026 132.856ZM271.375 115.012H281.948C280.204 109.225 278.477 103.491 276.698 97.5901C274.895 103.489 273.142 109.223 271.375 115.012Z" fill="white"/>
<path d="M40.1043 81.7326H68.2843V93.2651H52.5637V101.089H67.83V112.671H52.5518V121.245H68.2843V132.811H40.1043V81.7326Z" fill="white"/>
<path d="M6.73162 81.7135H19.6501V121.224H34.6738V132.818H6.73162V81.7135Z" fill="white"/>
<path d="M99.2093 28.9109C97.5562 30.3558 95.9197 31.7839 94.276 33.2192C94.2118 33.1762 94.1499 33.1547 94.1214 33.1141C92.2541 30.3152 89.5425 28.9635 86.298 28.6291C83.8051 28.3736 81.3575 28.6578 79.0407 29.6895C75.0207 31.4806 73.1344 35.4187 74.2952 39.5455C74.7876 41.296 75.908 42.5522 77.3827 43.5242C79.4379 44.8807 81.7357 45.6759 84.062 46.3948C86.7666 47.2306 89.4687 48.0689 92.002 49.3633C92.7299 49.7358 93.4435 50.137 94.1357 50.5693C97.5823 52.7258 99.6209 55.7755 99.9872 59.8904C100.494 65.579 98.7217 70.2527 93.9525 73.5866C92.1162 74.8714 90.0729 75.712 87.8964 76.2064C82.887 77.3408 77.956 77.1354 73.163 75.1842C70.5869 74.1358 68.389 72.5429 66.7001 70.2956C66.605 70.1691 66.5122 70.0377 66.4242 69.904C66.4028 69.8729 66.4004 69.83 66.3695 69.7249C68.0536 68.3373 69.7591 66.9331 71.4955 65.5026C71.5788 65.6029 71.6573 65.6841 71.7191 65.7748C73.8861 68.9845 76.9712 70.6515 80.7438 71.1052C83.8289 71.4778 86.7451 70.9166 89.4069 69.2663C92.8797 67.1122 94.3022 63.5204 93.2484 59.7208C92.806 58.1255 91.8545 56.9099 90.5153 55.9809C88.7218 54.7367 86.6738 54.0584 84.6448 53.3444C82.014 52.4177 79.3499 51.5747 76.769 50.5263C75.2871 49.9245 73.8742 49.0839 72.5517 48.174C69.2881 45.9219 67.6897 42.7026 67.5136 38.7622C67.2139 32.0609 70.506 26.8236 76.7381 24.402C82.171 22.2909 87.6871 22.267 93.1414 24.402C95.5415 25.3406 97.5086 26.9335 99.2141 28.9085L99.2093 28.9109Z" fill="white"/>
<path d="M185.598 81.7183H198.49V132.825H185.598V81.7183Z" fill="white"/>
<path d="M163.203 24.2158V29.8566H146.343V75.5305H140.268V29.8734H123.379V24.2158H163.203Z" fill="white"/>
<path d="M110.146 24.2086H116.155V75.5377H110.146V24.2086Z" fill="white"/>
<path d="M51.1722 75.5377V24.2205H57.1807V75.5377H51.1722Z" fill="white"/>
<path d="M336.707 17.954C337.404 19.2316 337.813 20.6311 337.939 22.1118C338.189 25.0373 337.38 27.7049 335.841 30.1456C333.134 34.4419 329.452 37.6158 324.79 39.6243C324.771 39.6314 324.754 39.6386 324.735 39.6458C319.738 41.4775 316.084 44.8711 313.456 49.4492C313.396 49.5519 313.322 49.6451 313.211 49.8122C313.061 49.6116 312.928 49.4516 312.816 49.2773C310.523 45.7213 310.292 42.0101 312.319 38.3156C314.919 33.5726 318.903 30.4202 324.015 28.7127C325.394 28.2518 326.791 27.8458 328.168 27.3801C330.965 26.4368 333.127 24.6719 334.595 22.1094C335.363 20.7672 336.003 19.3487 336.707 17.9516V17.954Z" fill="white"/>
<path d="M352.44 39.0034C352.706 42.3778 351.629 45.2938 349.371 47.7799C347.026 50.3639 344.031 51.9115 340.815 53.0864C338.337 53.9939 335.763 54.3713 333.134 54.4119C330.658 54.4477 328.194 54.5552 325.818 55.3671C323.399 56.1958 321.234 57.4926 319.167 58.9757C318.991 59.1023 318.812 59.2241 318.584 59.3817C318.054 57.3947 318.051 55.4698 318.617 53.5497C319.352 51.066 320.894 49.1555 322.989 47.725C327.116 44.9069 331.674 43.6364 336.679 44.0352C338.7 44.1953 340.732 44.3696 342.758 44.36C344.845 44.3505 346.747 43.5576 348.41 42.3253C349.64 41.413 350.756 40.3503 351.912 39.3401C352.054 39.2159 352.133 39.0177 352.242 38.8553C352.306 38.9054 352.373 38.9556 352.437 39.0057L352.44 39.0034Z" fill="white"/>
<path d="M304.614 43.068C302.462 41.7593 300.882 40.0542 300.004 37.7424C298.943 34.953 299.2 32.1588 300.061 29.3838C301.325 25.3119 303.534 21.8586 306.838 19.1409C307.747 18.3934 308.644 17.6268 309.55 16.8745C312.414 14.4959 313.779 11.3793 313.996 7.71584C314.058 6.68176 314.005 5.6429 314.005 4.46314C314.267 4.66853 314.407 4.76405 314.531 4.87869C317.138 7.29791 318.334 10.3333 318.208 13.8487C318.016 19.2078 315.953 23.8504 312.549 27.9246C311.936 28.6602 311.284 29.3694 310.601 30.0405C307.428 33.1475 305.682 36.971 304.921 41.3008C304.824 41.8525 304.731 42.4041 304.617 43.0704L304.614 43.068Z" fill="white"/>
<path d="M316.948 80.849C318.686 78.0238 321.044 76.2088 324.283 75.6905C327.438 75.1866 330.368 76.032 333.215 77.2978C336.186 78.6208 338.684 80.5648 340.751 83.0748C341.398 83.8605 342.066 84.6319 342.692 85.4367C345.258 88.7276 348.698 90.2011 352.78 90.3301C353.591 90.3563 354.404 90.3348 355.365 90.3348C355.118 90.6214 354.966 90.8173 354.795 90.994C352.152 93.7213 348.876 94.8007 345.175 94.4712C339.721 93.984 335.035 91.7152 331.053 87.9586C330.734 87.6577 330.401 87.3663 330.099 87.0487C326.705 83.4617 322.438 81.6872 317.652 80.9756C317.438 80.9445 317.226 80.8991 316.945 80.8466L316.948 80.849Z" fill="white"/>
<path d="M224.941 71.9626C226.206 68.1272 228.759 65.6506 232.422 64.4112C237.553 62.675 242.69 62.8995 247.786 64.6858C249.757 65.376 251.715 66.1498 253.737 66.6441C256.846 67.4059 259.957 66.9426 263.033 66.2501C263.34 66.1808 263.644 66.1163 264.084 66.0184C263.901 66.7659 263.787 67.4298 263.573 68.0627C262.184 72.1608 259.196 74.4057 255.083 75.1914C250.221 76.1228 245.564 75.4374 241.173 73.097C240.257 72.6098 239.337 72.1369 238.428 71.6354C235.043 69.7679 231.534 69.5672 227.919 70.8378C226.948 71.1793 225.992 71.5614 224.938 71.9578L224.941 71.9626Z" fill="white"/>
<path d="M241.984 23.2199C245.217 21.6031 248.528 21.4932 251.808 22.919C256.677 25.0373 260.164 28.684 262.662 33.3243C263.161 34.2533 263.601 35.2205 263.994 36.202C265.616 40.2404 268.337 43.3331 271.953 45.6759C272.521 46.0437 273.09 46.4115 273.708 46.8127C271.993 48.0808 270.133 48.8641 268.033 49.0194C265.121 49.2343 262.588 48.2169 260.3 46.5094C256.235 43.4764 253.578 39.4786 252.25 34.5757C251.989 33.6132 251.665 32.6675 251.344 31.7218C250.393 28.9133 248.611 26.7687 246.061 25.3C244.755 24.5477 243.375 23.9268 241.982 23.2199H241.984Z" fill="white"/>
<path d="M341.978 113.056C340.803 113.696 339.564 114.083 338.256 114.255C335.19 114.663 332.395 113.854 329.828 112.232C325.708 109.631 322.609 106.109 320.604 101.638C320.366 101.11 320.111 100.59 319.9 100.052C318.301 95.9972 315.537 92.9379 311.924 90.5975C311.377 90.2441 310.83 89.8882 310.223 89.4966C311.807 88.3312 313.494 87.5861 315.387 87.3425C318.315 86.9627 320.91 87.8655 323.258 89.5372C327.423 92.5033 330.194 96.4725 331.584 101.411C331.833 102.295 332.128 103.167 332.395 104.045C333.42 107.429 335.565 109.865 338.662 111.477C339.733 112.034 340.844 112.519 341.981 113.056H341.978Z" fill="white"/>
<path d="M266.984 55.4531C265.626 57.698 263.837 59.3267 261.403 60.1769C258.535 61.18 255.704 60.8122 252.902 59.8712C249.089 58.5912 245.847 56.4585 243.271 53.3372C242.495 52.3963 241.708 51.4673 240.935 50.5215C238.561 47.6175 235.44 46.2348 231.765 46.0222C230.754 45.9649 229.736 46.0127 228.587 46.0127C228.763 45.7714 228.837 45.6449 228.935 45.5374C231.04 43.2113 233.69 42.0053 236.784 41.8214C240.928 41.5754 244.672 42.9271 248.247 44.8663C249.941 45.7858 251.434 46.987 252.835 48.3077C253.185 48.6373 253.547 48.9525 253.877 49.2988C257.157 52.7425 261.254 54.5289 265.871 55.2597C266.218 55.3146 266.565 55.3791 266.984 55.4531Z" fill="white"/>
<path d="M321.11 128.873C318.498 129.081 316.184 128.503 314.062 127.163C311.41 125.489 309.645 123.048 308.263 120.29C306.512 116.798 305.644 113.097 305.639 109.185C305.639 106.51 305.411 103.866 304.412 101.347C303.568 99.2141 302.393 97.2701 301.065 95.4121C300.953 95.2569 300.849 95.0945 300.699 94.8771C303.908 94.144 306.853 94.5118 309.519 96.439C311.429 97.817 312.735 99.6893 313.774 101.774C315.768 105.777 316.422 109.994 315.868 114.427C315.635 116.292 315.437 118.169 315.725 120.053C316.12 122.637 317.4 124.775 319.081 126.702C319.709 127.421 320.385 128.097 321.113 128.873H321.11Z" fill="white"/>
<path d="M283.244 41.4321C279.267 42.3301 275.835 41.5253 273.002 38.638C270.568 36.1566 269.272 33.0544 268.423 29.742C267.726 27.0243 267.812 24.2707 268.109 21.5123C268.337 19.4012 268.53 17.2877 267.99 15.1884C267.39 12.8576 266.087 10.9375 264.491 9.20129C263.97 8.63529 263.368 8.14571 262.857 7.54389C264.484 7.28836 266.004 7.47941 267.483 7.99287C270.247 8.95292 272.352 10.7775 273.977 13.1609C276.586 16.9915 278.045 21.221 278.254 25.8827C278.351 28.0559 278.427 30.2507 278.794 32.3881C279.336 35.5644 281.004 38.2678 282.845 40.8542C282.959 41.0142 283.071 41.1766 283.247 41.4297L283.244 41.4321Z" fill="white"/>
</svg>
