<svg xmlns="http://www.w3.org/2000/svg" viewBox="0 0 864 452"><path fill="#dfdfdf" d="M838.37 247.93c.5-12.95.79-25.9 1.6-38.83.27-4.41 3.72-9.59 2.25-12.85-1.42-3.16-7.36-4.21-11.23-6.34-12.55-6.91-19.18-17.62-20.07-31.87-.19-3.16-.28-6.33-.13-9.49.15-3.14-1.28-7.54 3.1-8.51 4.54-1 9.39-.67 14.1-.7.09 0 .87 3.28.2 4.18-9.16 12.27-6.88 26.38 6.38 34.29 4.89 2.91 10.78 4.14 16.22 6.13 2.96 1.08 6.05 1.87 8.84 3.29 2.35 1.19 3.71 3.71 1.03 5.58-9.01 6.31-9.83 16-10.32 25.4-1.75 33.61.63 66.94 8.96 99.65.97 3.82 3.42 7.27 5.45 10.51.25 2 .25 4.37-.14 6.9-.95 3.03-1.75 5.87-2.03 8.76-.52 5.3-.24 10.71-1.16 15.92-5.34 30.25-23.19 51.87-48.42 67.81-27.22 17.18-57.52 20.51-88.6 16.55-19.28-2.45-38.28-7.12-57.4-10.8-55.75-10.73-111.64-14.6-167.83-3.44-21.28 4.23-42.17 9.8-61.48 20.07-1.1.58-1.8 1.89-2.69 2.86-1.71 0-3.43 0-5.22-.27-6.99-3.71-13.65-7.89-20.87-10.48-40.97-14.69-83.44-19.99-126.78-18.75-38.12 1.1-75.54 7.23-112.6 15.98-27.03 6.38-54.51 9.63-81.67 2.54-44.59-11.64-75.85-37.6-85.21-85.05-.08-.42-1.08-.65-1.65-.97v-28.53c1.1-1.58 2.87-2.53 3.18-3.83 2.35-9.69 4.88-19.38 6.46-29.21 4.01-24.9 5.42-50 4.3-75.21-.22-5.11-.87-10.37-2.43-15.21-1.16-3.61-3.74-6.96-6.34-9.85-3.22-3.59-3.34-5.43 1.11-7.42 2.86-1.28 6.08-1.71 8.98-2.92 6.24-2.59 13.11-4.44 18.39-8.38 10.98-8.2 11.86-21.08 3.24-31.69-2.21-2.7-1.46-4.34 1.65-4.85 2.74-.46 5.65-.78 8.37-.39 4.75.68 8.02 2.96 7.29 8.67-.93 7.22-.48 14.82-2.57 21.66-3.91 12.83-13.67 20.56-26.19 24.72-2.91.96-4.36 2.14-3.33 5.29 6.43 19.76 4.65 39.95 2.17 59.93-2.76 22.29-7.35 44.35-10.29 66.63-6.39 48.35 18.22 87.11 64.68 102.57 25.74 8.55 51.87 7.2 78.06 2.47 27.51-4.96 54.85-11.24 82.55-14.77 59.07-7.54 117.37-3.58 174.01 16.32 6.11 2.15 12.02 6.73 18.03 6.73 6-.01 11.93-4.55 18.02-6.77 42.71-15.53 86.97-20.66 132.15-19.47 40.64 1.06 80.44 8 120.01 16.91 26.29 5.91 52.8 7.46 79.08-.38 26.44-7.89 46.62-24.06 60.26-47.89 3.89-6.79 5.59-14.83 8.47-23.07.42-5.57 1.27-10.46.77-15.2-1.35-13.05-3.22-26.06-4.99-39.08-2.53-18.62-5.14-37.23-7.72-55.85M485.53 1c1.64.59 2.79 1.62 4 1.7 17.45 1.11 34.99 1.41 52.37 3.24 35.76 3.77 71.59 7.41 107.14 12.76 65.25 9.83 130.12 8.95 194.9-3.4 5.66-1.08 11.48-2.31 16.82.93.12.61.36 1.03.23 1.23-9.5 15.02-5.67 31.63-5.42 47.74.04 2.65 1.99 5.64 3.84 7.81 2.58 3.02 2.38 5.74-.36 7.73-3.45 2.51-7.38 4.41-11.25 6.25-4.64 2.21-9.77 3.54-14.12 6.19-12.63 7.71-14.83 21.1-5.65 32.67 2.35 2.95 1.17 4.53-1.78 4.61-3.92.11-7.95-.31-11.76-1.22-1.39-.33-3.07-2.63-3.29-4.21-3.11-23.21 5.14-37.58 26.93-46.44 4.45-1.81 5.99-4.09 5.85-8.88-.36-12.32-.09-24.65-.1-36.98-.01-6.14-.5-6.51-6.7-5.37-34.51 6.35-69.29 9.62-104.38 9.4-32.92-.21-65.46-4.48-97.95-9.22-99.97-14.61-200.41-18.83-301.11-11.01-47.13 3.66-94.07 10.05-141 15.92-48.14 6.03-96.07 5.28-143.97-1.95-7.08-1.07-14.17-2.09-21.22-3.29-3.75-.64-5.59.24-5.55 4.5.15 13.49-.11 27 .16 40.49.03 1.77 1.81 4.11 3.45 5.13 3.92 2.47 8.42 4 12.36 6.45 11.15 6.95 16.97 17.09 17.2 30.31.04 1.83.22 3.7-.08 5.49-.53 3.1-.61 8.2-2.26 8.83-4.26 1.62-9.27 1.58-13.98 1.54-2.47-.01-2.7-1.83-1.06-3.85 9.44-11.62 7.57-24.47-5.07-32.57-4.15-2.67-8.97-4.31-13.5-6.39-3.17-1.45-6.53-2.58-9.52-4.33-5.34-3.13-5.39-5.67-2.02-10.64 1.77-2.59 2.96-6.05 3.11-9.18.41-9.15.72-18.37-.02-27.47-.42-5.25-2.53-10.5-4.67-15.41-1.38-3.16-1.3-5 2.13-5.22 4.43-.29 9-.41 13.33.37 44.59 7.99 89.47 12.79 134.76 9.42 26.55-1.98 52.99-5.59 79.4-9.1 44.45-5.9 88.98-10.61 133.78-12.7 2.39-.11 4.75-.74 6.81-1.5C412.35 1 448.71 1 485.53 1"/><path fill="#dfdfdf" d="M433.61 434.82c-1.12-.18-2.34-.14-3.33-.59-36.08-16.28-74.33-22.96-113.47-25.28-50.84-3.01-100.69 4.04-150.1 15.48-26.38 6.11-53.04 8.71-79.65 1.59-27.05-7.23-47.55-23.33-61.44-47.68-10.3-18.08-8.98-37.46-6.1-56.97 3.58-24.21 7.62-48.37 10.54-72.65 1.92-16.03 2.56-32.26-2.32-48.11-.29-.95.82-2.39 1.42-3.52.19-.35.87-.44 1.32-.65 21.35-10.18 29.77-24.36 28.68-48.28-.14-3.07-1.4-7.16 2.69-8.05 4.52-.99 9.35-.53 14.05-.7-.03 1.66.63 4.02-.22 4.86-4.1 4.1-5.33 9.01-5.52 14.54-.64 18.85-9.34 32.98-25.48 42.53-2.77 1.64-4.02 3.36-3.64 6.73 3.17 28.1-.37 55.87-4.52 83.58-1.4 9.38-3.61 18.65-4.85 28.04-.47 3.54.79 7.3 1.2 10.96.16 1.39.75 3.21.12 4.13-5.75 8.48-4.27 17.61-2.18 26.54 2.82 12.01 9.85 21.79 18.4 30.39 16.34 16.45 36.41 24.59 59.37 26.35 23.92 1.82 47.08-2.56 70.29-7.44 46.61-9.81 93.6-15.84 141.39-12.7 37.29 2.44 73.6 9.38 108.57 22.84 2.21.85 5.32.86 7.52 0 54.53-21.15 111.07-26.41 168.96-22.33 36.19 2.55 71.53 9.89 106.98 16.94 22.1 4.39 44.44 5.31 66.29-1.49 23.9-7.43 41.9-22.41 52.54-45.19 2.86-6.12 3.68-13.41 4.37-20.27.86-8.59-4.38-16.38-2.26-25.89 1.64-7.35-2.71-15.88-3.59-23.97-2.45-22.5-4.76-45.03-6.51-67.59-.56-7.23.54-14.63 1.37-21.9.39-3.41-.15-5.62-3.19-7.49-16.82-10.32-25.06-25.45-25.89-45.16-.16-3.89-3.18-7.68-4.96-11.48-.67-1.42-1.56-2.73-2.34-4.1 1.53-.84 3.04-2.33 4.6-2.4 3.11-.13 6.35.15 9.34.97 3.53.96 5.26 3.35 4.95 7.5-.36 4.95-.18 10.01.39 14.95 1.88 16.29 11.42 27.01 25.89 33.49 4.51 2.03 5.12 3.99 3.85 8.6-3.9 14.17-3.34 28.71-2.26 44.07 1.56 14.22 2.7 27.63 4.73 40.9 3.47 22.59 9.34 44.9 7.36 68.08-11.77 42.83-48.49 71.14-94.02 73.07-23.1.97-45.35-3.53-67.69-8.44-53.54-11.75-107.59-16.97-162.32-10.59-29.38 3.42-58.11 9.69-85.95 21.94-1.54.75-2.46 1.3-3.38 1.84M85.7 50.18c-16.16-1.79-31.86-3.55-48.26-5.39 0 6.4-.2 12.97.16 19.51.07 1.34 2.11 2.71 3.45 3.81 5.39 4.44 11.21 8.41 16.22 13.22 6.92 6.64 11.04 15.06 12.38 24.56 1.16 8.2.39 16.95 8.81 22.18-4.57 3.77-14.94 3.72-18.21.19-.95-1.02-1.17-2.96-1.24-4.5-.22-4.83.13-9.69-.33-14.48-1.55-15.97-11.29-26.11-25.12-32.22-6.5-2.88-8.18-6.54-7.82-13.15.57-10.44.15-20.93.15-32.37 4.94.62 9.31 1.02 13.64 1.74 56.51 9.4 113.06 9.72 169.72 1.22 79.9-11.98 160.19-18.41 241.05-17.15 55.36.87 110.52 4.41 165.44 11.67 27.4 3.61 54.81 7.42 82.31 10.11 42.38 4.15 84.55 1.16 126.5-5.6 4.88-.78 9.78-1.52 15.47-2.4V43.1c.01 8.5-.19 17.01.13 25.49.14 3.63-1.04 5.41-4.35 6.69-3.08 1.18-5.94 2.99-8.78 4.72-14.65 8.93-20.85 22.25-20.33 39.13.11 3.44 1.99 7.81-2.48 9.82-5.23 2.37-10.74 3.01-15.99.33-.07-.71-.17-.96-.1-1.02 7.28-6.3 6.99-15.2 8.48-23.64 2.48-13.94 10.81-24.51 22.41-31.76 8.06-5.04 11.13-10.98 9.66-19.99-.4-2.4-.06-4.92-.06-8.09-7.14.88-13.68 1.63-20.2 2.51-51.72 7.02-103.34 5.92-154.93-1.69-67.97-10.02-136.18-17.45-205.03-16.94-4.4.04-8.78 1.33-13.17 1.96-1.62.23-3.3.49-4.9.3-5.2-.61-10.37-2.05-15.55-2.07-63.46-.26-126.45 5.72-189.2 14.72-46.29 6.64-92.66 11.12-139.93 6.61"/><path fill="#dfdfdf" d="M579.63 194.37c16.96 17.26 17.97 37.37 10.15 58.21-7.76 20.67-24.6 30.4-45.86 31.29-23.13.96-46.32.31-69.49.32-7.16.01-14.33.09-21.48-.27-2.11-.1-4.14-1.6-6.21-2.46 1.12-1.74 1.96-3.78 3.42-5.17 4.78-4.58 6.8-10.14 6.8-16.61-.02-15.49.02-30.99-.03-46.49-.03-8.5-2.04-16.21-9.27-21.64-2.45-1.84-2.02-3.59.16-5.2 7.32-5.41 9.23-13.06 9.2-21.6-.06-14.84-.17-29.67.02-44.5.09-7.49-2.26-13.65-7.87-18.66-1.25-1.11-1.87-2.93-2.77-4.42 1.68-.89 3.28-2.11 5.07-2.58 2.06-.54 4.29-.57 6.45-.57 25.83-.01 51.66-.02 77.49.06 13.87.04 26.46 3.84 37.87 12.08 21.15 15.28 29.24 58.82-1.71 78.69-.7.45-1.31 1.01-2.12 1.64 3.39 2.6 6.65 5.12 10.18 7.88m-23.36-10.54c26.88-15.13 24.7-53.43 4.14-67.75-7.33-5.11-15.42-8-24.27-8.16-18.66-.34-37.33-.32-55.99-.47-6.94-.05-7.21.17-7.21 7.31-.04 50-.06 99.99-.08 149.99 0 1.16.08 2.33.03 3.5-.14 2.74 1.16 3.93 3.88 3.91 20.49-.11 41.02.45 61.48-.45 19.84-.86 33.4-11.57 38.21-28.31 2.58-8.97 2.88-18.09.58-27.18-3.15-12.46-10.72-21.2-22.56-26.25-1.56-.66-3.12-1.35-5.42-2.35 2.76-1.46 4.66-2.46 7.21-3.79M295.01 232c2.52 18.77 18.88 35.36 39.21 38.86 6.8 1.17 13.9.63 21.55.8 1.21-.27 1.72-.46 2.23-.64 20.57-2.08 38.27-19.14 41.87-40.76.94-5.7.94-11.55 1.41-18.06-.05-1.89-.13-3.05-.21-4.22.1-4.02.19-8.03.32-12.88-.05-5.6-.13-10.38-.21-15.15.18-16.48.39-32.97.51-49.45.07-9.17.1-18.33-.1-27.5-.07-3.1.92-4.96 3.79-6.16 6.01-2.51 12.14-3.64 18.52-1.89 4 1.1 4.62 3.16 1.44 5.85-6.63 5.61-8.34 12.78-8.23 21.02.19 14.5.06 28.99-.02 43.49-.04 8.19 1.86 15.53 8.52 20.96 2.79 2.27 2.4 4.32-.29 6.43-6.31 4.95-8.14 11.82-8.42 19.47-.25 6.98-.19 14.07-1.46 20.89-5.25 28.05-27.5 48.9-56.9 52.57-26.78 3.33-50.29-3.52-67.79-25.45-7.72-9.66-11.61-20.89-12.68-33.12-.41-4.81-.67-9.65-.71-14.48-.07-7.88-2.3-14.8-8.43-20.05-2.79-2.38-2.28-4.49.13-6.62 6.51-5.77 8.42-13.12 8.25-21.58-.3-14.49-.3-29-.02-43.49.16-7.96-1.65-14.8-7.84-20.16-1.07-.92-1.75-2.28-2.6-3.41 6.07-5.16 21.52-3.82 25.43 2.1.89 1.35.81 3.47.81 5.24.02 34.83-.04 69.65-.03 104.48 0 4.33.24 8.66.41 13.67.19 1.21.34 1.73.49 2.25.08 1.39.16 2.78.32 4.83.3 1.15.51 1.66.73 2.16M168.56 94.45c21.45-2.24 40.94 1.33 57.71 15.12 8.3 6.82 13.89 15.55 18.39 25.2 2.22 4.77 5.15 9.26 8.13 13.61 2.61 3.81 2.42 5.18-2.22 5.91-3.41.54-6.98.68-10.41.33-5.41-.57-8.7-3.22-10.04-9.2-5.25-23.61-19.24-35.64-43.46-37.41-6.9-.51-14-.1-20.86.9-19.69 2.86-31.39 15.07-36.65 33.63-2.03 7.16-3.68 14.72-3.69 22.1-.03 20.62-.5 41.38 1.72 61.82 3.83 35.21 27.52 52.18 62.65 46.94 23.62-3.52 36.38-15.84 41.12-39.21.43-2.15 2.67-5.28 4.46-5.58 5.27-.88 10.76-.95 16.1-.52 2.72.21 3.51 2.3 1.51 5.14-3.31 4.7-6.82 9.46-9.03 14.7-20.71 49.09-88.61 50.26-116.74 19.45-10.06-11.02-15.52-23.91-17.25-38.52-.77-6.45-1.15-12.94-1.76-19.4-.57-6.05-2.91-11.28-7.57-15.27-2.67-2.28-3.41-4.3-.26-6.8 5.92-4.71 7.88-11.29 8.53-18.49.69-7.63 1.16-15.31 2.38-22.86 4.27-26.55 25.85-46.88 53.82-51.07.99-.15 1.98-.29 3.42-.52"/><path fill="#dfdfdf" d="M395.91 174.03c-.07 2.03-.15 4.06-.26 6.9.05 5.57.13 10.34.21 15.11-.11 5.7-.22 11.4-.36 17.92-.03 2.56-.01 4.32 0 6.08-1.04 12.56-4.19 24.36-13.74 33.3-15.15 14.19-33.21 16.12-52.11 10.37-17.4-5.28-26.83-18.15-29.9-36.59-.27-1.51-.48-2.32-.69-3.14 0-39.63.12-79.26-.14-118.89-.04-5.22 1.94-7.68 6.41-9.02 6.95-2.08 13.85-3.15 21.31 1.27-1.46 1.69-2.42 3.18-3.73 4.24-5.33 4.3-7.67 9.96-7.73 16.62-.14 16.49-.26 32.97-.24 49.46.01 7.29 2.22 13.8 8.17 18.53 3.08 2.45 2.18 4.09-.2 6.77-2.99 3.36-6.68 7.5-6.99 11.54-.72 9.31-1.02 19.11 1.12 28.08 3.25 13.57 17.46 21.35 33.42 20.46 13.54-.76 25.81-10.49 28.17-23.56 1.31-7.28 1.2-14.9.98-22.35-.17-5.46-2.77-10.3-7.27-13.71-3.02-2.29-3.74-4.53-.65-7.24 6.71-5.89 8.36-13.57 8.25-22.1-.19-14.66-.14-29.32 0-43.97.07-7.6-1.98-14.06-8.16-18.94-1.16-.92-1.69-2.65-2.51-4 1.51-.89 2.97-2.42 4.54-2.55 3.77-.32 7.68-.48 11.38.19 9.31 1.68 10.62 3.55 10.6 12.81-.03 20.48-.03 40.96-.08 62.17.04 1.9.12 3.06.2 4.24m-198.69-58.31c16.14 4.77 24.68 15.69 27.44 31.51.22 1.29-.05 3.13-.85 4.07-4.16 4.89-18.54 5.01-23.86.06.83-.93 1.59-1.95 2.5-2.81 4.24-3.96 4.56-6.4 1.26-11.13-.66-.95-1.44-1.84-2.29-2.63-16.02-14.88-46.35-7.31-52.1 13.64-2.32 8.45-2.49 17.78-1.96 26.6.24 4.19 4.01 8.47 6.95 12.08 2.33 2.87 3.27 4.58-.06 7.22-5 3.97-7.61 9.54-7.3 15.77.41 8.25.84 16.69 2.93 24.61 2.72 10.27 10.25 17.11 20.91 18.33 7.42.85 15.25.2 22.61-1.24 3.8-.75 7.44-4.24 10.29-7.3 3.1-3.32 2.8-7.17-1.02-10.46-3.75-3.24-3.18-5.05 1.69-6.49.48-.14.96-.31 1.45-.35 6.4-.58 14.19-1.54 17.49 4.09 2.03 3.46-.46 10.49-2.5 15.23-5.07 11.75-14.88 18.56-27.23 20.3-8.95 1.26-18.34 1.36-27.29.18-14.57-1.94-24.81-10.74-29.34-24.68-2.8-8.62-4.94-17.84-5.12-26.84-.43-20.43-1-41.07 1.29-61.31 3.53-31.16 22.48-45.28 58.89-39.84 1.64.25 3.22.84 5.22 1.39M769.8 281.31c-1.36 1.23-2.78 2.74-4.29 2.85-4.11.29-8.3.3-12.41-.14-5.43-.58-8.75-3.59-10.55-9.1-18.42-56.49-37.04-112.92-55.58-169.38-1.93-5.87-1.35-8.01 4.45-9.34 5.66-1.29 11.72-1.37 17.57-1.11 3.46.16 4.36 2.83 1.67 5.59-6.32 6.49-6.3 13.9-3.4 21.81 5.32 14.54 10.64 29.07 15.9 43.64 3.11 8.61 7.5 16.01 16.87 19.07 2.79.91 2.97 2.61 1.5 4.98-4.7 7.59-4.24 15.43-1.19 23.49 4.96 13.08 9.82 26.19 14.57 39.34 3.63 10.02 6.83 20.24 14.89 28.3m-156.52-48.59c3.09-8.66 6.3-16.88 8.98-25.27 2.21-6.91 2.04-13.83-2.23-20.14-1.78-2.63-1.37-4.28 1.88-4.96 7.84-1.66 12.31-7.12 14.95-14.1 6.35-16.81 12.49-33.7 18.56-50.62 2.43-6.77 1.24-13.02-3.32-18.76-3.05-3.84-2.22-6.59 2.5-6.64 5.99-.06 12.09 1.08 17.96 2.44 3.23.75 4.24 3.42 3 7.13-19.3 57.41-38.45 114.88-57.7 172.31-.51 1.52-1.37 3.11-2.51 4.22-4.83 4.71-17.61 5.22-23.58.9 11.74-13.23 14.84-30.48 21.5-46.52zm39.24-30.29c10-29.56 19.84-58.76 29.68-87.96.43.01.87.01 1.3.02 12.97 38.83 25.93 77.66 39.15 117.23H642.9c3.23-9.87 6.35-19.39 9.62-29.29m34.44-39.9c-1.18-3.11-2.36-6.23-4-10.53-7.84 23.04-15.22 44.68-22.74 66.76h45.41c-6.28-18.9-12.36-37.19-18.67-56.23m-41.16 96.55c-1.97 7.57-.59 13.54 5.82 17.98 1.36.94 2.08 2.82 3.09 4.27-1.62.98-3.29 2.88-4.83 2.78-6.05-.37-12.14-.99-18.05-2.29-3.24-.7-4.47-3.46-3.21-7.12 3.79-11.01 7.44-22.08 10.98-33.18.84-2.66 2.16-3.63 4.98-3.61 25.32.12 50.65.15 75.98.07 2.89-.01 4.22 1.14 5.04 3.66 3.61 11.08 7.24 22.15 10.98 33.19 1.12 3.32.29 6.07-2.95 6.72-6.08 1.24-12.29 1.88-18.48 2.35-1.29.1-3.45-1.31-3.86-2.49-.37-1.04.77-3.35 1.9-4.05 9.5-5.97 7.16-14.24 4.73-22.61-.76-2.59-2.23-3.71-5.05-3.7-20.16.06-40.32.09-60.48-.13-5.82-.06-5.21 4.45-6.59 8.16m-5.36 77.51c5.02-5.5 10.69-8.28 17.97-6.77 6.98 1.44 12.17 7.16 13.65 14.14 1.47 6.89.82 13.53-.67 20.25-1.93 8.73-8.03 13.28-17.85 13.13-8.07-.12-14.91-6.06-16.32-14.03-.48-2.73-1.71-5.39-1.74-8.1-.04-2.27 1.2-4.54 1.81-6.83 1.01-3.82 1.98-7.64 3.15-11.79m4.56 30.39c-.78-3.71-1.56-7.43-2.44-11.63-2.3 4.77-1.05 10.94 2.75 14.42 1.16.87 2.32 1.74 3.49 2.62.25-.36.5-.71.75-1.07-1.47-1.19-2.95-2.38-4.55-4.34m17.13-5.74c.05-1.16.6-2.67.07-3.4-2.06-2.86-1.5-5.33-.55-8.55.7-2.36-.29-6.31-2.04-7.99-1.63-1.58-5.6-2.13-7.9-1.32-4.38 1.55-4.72 5.81-4.33 10.04.21 2.17.25 4.45-.19 6.56-.92 4.4 1.78 10.5 5.39 11.48 4.75 1.29 7.48-.45 9.55-6.82m-17.2-19.6c1-1.45 2-2.91 3.33-4.84-5.81 2.72-8 9.42-5.64 14.36.62-2.66 1.34-5.72 2.31-9.52m6.19 31.51h8.14l-.09-1.47c-2.95.39-5.9.79-8.05 1.47m-83.38-39.39c-.74-1.12-1.32-1.84-2.95-3.87 10.26 1.11 19.33-2.14 28.01 2.22 5.61 2.81 8.26 7.68 9.58 13.73 1.38 6.29.52 12.36-.59 18.46-1.37 7.46-7.42 12.69-15.02 12.93-6.47.21-12.95.04-18.45.04-.16-14.78-.98-28.95-.58-43.51m10.09 8.13c-.82 6.25 1.26 12.53-.63 18.9-.65 2.2 1.09 7.17 2.5 7.48 3.01.67 7.62.19 9.51-1.79 2.1-2.19 2.01-6.57 2.64-10.04.29-1.62-.16-3.36.01-5.01.41-3.93.56-7.82-3.21-10.28-3.42-2.24-7.08-3.59-10.82.74m8.13-5.75c1.36.51 2.72 1.02 4.08 1.54.09-.5.18-1 .26-1.5-5.53-3.58-11.9-.84-17.49-1.7v16.44c.45-.03.9-.05 1.34-.07v-14.71zm10.71 29.83c.49-3.17.99-6.33 1.48-9.49-.49-.07-.97-.13-1.46-.2-1 4.27-1.99 8.53-3.29 14.11 1.46-1.85 2.2-2.78 3.27-4.42m-2-22.8c.77 2.95 1.54 5.89 2.66 10.17 1.53-8.15-.43-12.82-5.27-14.21.78 1.27 1.45 2.36 2.61 4.04m-219.63-4.97c4.11-7.02 11.33-10.07 18.95-8.26 7.14 1.69 12.01 8 13.45 15 1.33 6.39 1.32 12.46-.23 18.68-2.28 9.13-9.58 14.49-18.72 13.65-9.09-.83-14.49-7.37-15.82-16.69-1.11-7.73-.46-14.89 2.37-22.38m24.29-.43c-1.27-.72-2.54-1.44-3.8-2.16-.2.33-.4.67-.6 1 1.31.84 2.61 1.69 4.17 3.26.92 3.73 1.84 7.46 2.86 11.58 2.1-5.62 1.33-9.52-2.63-13.68m-19.23.3c-3.2 3.73-3.63 8-2.64 13.28 1.56-4.71 2.89-8.72 4.75-13.18l1.95-1.65c-.26-.31-.52-.62-.77-.93-.88.72-1.76 1.45-3.29 2.48m5.55 1.73c-1.01 3.29-2.24 6.53-2.95 9.88-.47 2.22.05 4.63-.31 6.89-.71 4.52.52 8.54 4.12 10.95 1.65 1.11 5.28.95 7.06-.17 4.08-2.55 4.76-6.7 3.15-11.31-.46-1.3.19-2.95.01-4.4-.43-3.4-.45-7.02-1.73-10.1-1.62-3.86-5.32-3.09-9.35-1.74m-34.58-9.89c9.73 3.31 12.61 7.79 13.86 17.57.61 4.79.8 9.22-.06 14-1.65 9.16-8.6 15.87-17.44 15.91-9.52.03-15.27-5.87-17.47-15.61-1.48-6.59-.16-12.58 1.01-18.72 1.71-8.9 9.1-13.66 20.1-13.15m-11.48 8.69c3.89-3.79 8.45-4.06 13.53-2.11.12-.32.24-.63-.07-1.64-5.17-1.6-10.16-2.21-14.65 2.94-.2.33-.41.66-1.28 1.27-2.94 3.55-2.98 7.51-1.7 11.63 1.08-3.71 2.15-7.43 3.49-11.39 0 0 .08-.36.68-.7m13.59 14.98c.36-3.48 1.45-7.11.78-10.38-.37-1.79-3.65-3.97-5.75-4.13-2.18-.17-6.37 1.73-6.49 3.02-.71 7.59-1.38 15.41-.25 22.88.74 4.92 8.02 6 11.24 1.06 2.55-3.92 2.61-7.68.47-12.45m-17.11 6.71-.75-4.65c-.61.13-1.22.25-1.83.38l1.95 11.64c.62-.11 1.23-.23 1.85-.35-.38-2.03-.76-4.07-1.22-7.02m2.33 8.15.12 2.43c.57-.06 1.15-.11 1.72-.17-.29-.63-.57-1.27-1.84-2.26m2.62 3.8c.49.13.98.26 1.48.4.03-.26.11-.75.09-.75-.62-.13-1.26-.22-1.57.35m106.07-15.17c-7.71-5.79-9.97-12.25-7.01-19.05 2.89-6.64 11.1-10.39 19.9-8.87 3.26.57 6.46 1.54 9.62 2.53 3.4 1.07 3.09 3.21.88 5.13-2.11 1.83-4.57 3.24-6.83 3.44-3.04-.74-6.05-1.76-9.13-2.12-3.69-.44-5.72 1.86-5.72 5.34 0 3.58 2.73 4.41 5.82 4.81 3.21.42 6.57.8 9.51 2.04 6.19 2.6 9.43 8.14 8.68 13.7-.86 6.39-6.27 11.85-12.52 13.27-8.33 1.88-15.55-1.94-23.7-3.7 3.21-3.56 6.02-6.68 8.85-9.82 5.34 5.96 11.23 7.04 15.63 2.47 1.11-1.16 1.12-3.79.85-5.63-.1-.66-2.5-1.11-3.9-1.41-3.51-.75-7.05-1.36-10.93-2.13m1.26-19.85c-.69-.22-1.67-.85-2.04-.6-5.13 3.51-3.96 12.62 1.9 15.35-3.72-9.57-3.72-9.57.14-14.75m8.05 17.44 6.53.63c.07-.44.13-.88.2-1.32-4.8-.66-9.59-1.33-14.39-1.99-.13.62-.25 1.23-.37 1.85 2.38.34 4.77.69 8.03.83m-6.53-20.01-1.08.66c.47.22.95.44 1.42.65.11-.34.22-.67-.34-1.31m99.71 38.97c-12.27 8.49-26.06 2.26-27.76-12.08-.26-2.25-1.26-4.4-1.74-6.64-.23-1.03-.42-2.34 0-3.22 3.28-6.89 2.24-13.68-.31-21.05h12.54c-.3 5.36-1.29 10.82-.69 16.11.47 4.19.84 8 .15 12.29-.42 2.68 1.83 6.85 4.19 8.68 4.41 3.44 10.97-.84 10.26-7.39-.6-5.63 1.1-10.88.61-16.32-.39-4.36-.91-8.7-1.4-13.36h11.99c-1.37 7.79-.55 15.02.07 22.5.52 6.35.14 15.52-7.91 20.48m-22.42-38.44c-3.07 5.07-.88 10.23-1.4 15.34.62.02 1.25.03 1.87.05 0-4.86 0-9.73-.47-15.39m24.99 9.22v-9.5c-.51.03-1.02.06-1.53.08v15.82l1.23.06c.1-1.84.19-3.68.3-6.46m-26.34 15.02c.3 3.81-.12 7.94 4.18 10.4-1.09-4.99-2.07-9.53-3.06-14.07-.3.04-.6.08-.9.13-.1.87-.2 1.75-.22 3.54m-288.67-28.9c1.89 4.87 3.27 9.73 4.87 14.53 2.78 8.39 5.66 16.75 8.58 25.09.75 2.13 1.8 4.15 2.9 6.66h-13.52c.29-1.09.38-2.05.78-2.87 1.59-3.32-.11-4.77-3.08-4.99-3.14-.25-6.32-.15-9.47.04-6.45.4-7.23 1.73-4.66 7.92h-12.81c2.15-5.73 4.18-11.34 6.36-16.89 2.48-6.35 5.39-12.55 7.51-19.02 1.02-3.14.65-6.74.93-10.51 3.66 0 7.42 0 11.61.04m-6.15 20c-1.24 2.95-2.49 5.9-4.02 9.53h9.88c-1.44-4.89-2.71-9.24-4.27-14.52-.7 2.08-1.06 3.16-1.59 4.99m-5.03-1.23c-.19 1.13-.37 2.26-.55 3.39 3.13-5.03 5.53-10.19 7.58-15.49.32-.82-.96-2.26-1.67-3.78-2.02 5.84-3.62 10.48-5.36 15.88m-5.12 11.85c-.61 1.8-1.21 3.59-1.94 5.75 3.05-.64 5.5-1.15 7.95-1.66-7.29-1.55-1.99-6.53-3.85-9.76-.66 1.63-1.32 3.26-2.16 5.67m22.36-.85c-.35-1.43-.7-2.87-1.38-5.67-1.77 6.99-.97 10.65 2.6 13.19-.43-2.54-.78-4.61-1.22-7.52m-48.23 10.3c.57 2.27 1.15 4.08 1.84 6.25h-13.72c2.62-7.18 2.96-14.17.6-21.26-.27-.81.03-1.86.24-2.76.14-.62.68-1.14.86-1.76 3.06-10.11.19-12.82-11.37-10.15-.18-3.78-.36-7.48-.55-11.39h33.61v11.41c-3.05-.61-5.69-1.46-8.36-1.52-1.01-.02-2.94 1.78-2.94 2.74.02 3.57.65 7.14 1.09 10.71.07.63.56 1.26.49 1.86-.55 5.14-1.18 10.28-1.79 15.87m-2.53-36.52h-15.19c.03.58.07 1.15.1 1.73 8.23.77 16.45 1.23 24.65.29l.06-1.52zm99.7-4.98h33.9c-.46 4.25-.85 7.9-1.27 11.81-2.47-.55-4.91-1.25-7.39-1.6-2.84-.39-4.58.91-4.26 3.95.33 3.06.92 6.1 1.41 9.14.13.79.51 1.59.44 2.35-.54 5.49-1.3 10.96-1.66 16.46-.11 1.69.8 3.45 1.35 5.58H301.7c1.39-7.31 3.53-14.6-.46-21.82-.33-.6-.05-1.59.09-2.38.79-4.09 1.63-8.17 2.75-13.72-4.74.67-8.03 1.14-11.83 1.09-.38-3.96-.24-7.41-.11-10.86m18.48 4.83h-7.43l-.12 1.37c8 3.07 1.18 10.87 5.25 15.34.54-2.42.54-4.8.54-7.17-.01-7.68-.01-7.67 7.8-7.39 1.44.05 2.88.01 4.32.01 0-.71.01-1.41.01-2.12-3.14 0-6.28 0-10.37-.04m-20.59 7.09c-2.34-.47-4.67-.98-7.02-1.4-3.22-.58-5.38.41-4.97 4.08.34 3.02 1.1 6 1.62 9.01.13.77.3 1.69.01 2.35-3.2 7.22-1.32 14.36.06 21.84h-12.16c.22-4.9 1.05-9.77.48-14.46-.68-5.67-.46-11.1.15-16.74.67-6.16-2.19-7.81-8.22-5.77-.76.26-1.45.71-2.63 1.31-.34-4.08-.65-7.75-1-11.96 10.73 0 21.53 0 32.8.43.61 4.07.75 7.69.88 11.31m-16.07 1.13c-.59-9.44 7.41-4.39 11.11-7.38h-23.71c0 .45-.01.89-.01 1.34 2.74 0 5.51-.28 8.2.06 4.54.57 2.01 4.43 2.58 7.62v7.13l1.72-.03c0-2.64 0-5.28.11-8.74M498 330.05c5.13-.01 9.77-.01 14.79-.01-.36 3.62-.7 7.12-1.04 10.51-.65.15-.98.31-1.29.28-2.97-.28-5.94-.6-8.91-.9-.06 3.69-.21 7.38-.14 11.06.02 1.33 1.17 2.9.76 3.94-2.84 7.18-.87 14.21 0 21.75h-12.33c1.48-7.22 2.87-14.22-.35-21.26-.45-.98.16-2.44.26-3.68.27-3.4.84-6.82.59-10.18-.06-.9-2.62-2.22-4.07-2.28-2.36-.1-4.76.69-7.54 1.17v-10.4zm5.3 5.01h-20.07c2.18.85 4.34 1 6.47.82 4.15-.35 5.75 1.42 5.36 5.54-.25 2.64-.05 5.34-.05 8.01.94-3.85.3-8.6 2.36-11.2 1.81-2.29 6.66-2.16 10.43-3.17zm-6.47 28.44v-6.66c-.5.03-1.01.06-1.51.08v16.28c.5.01.99.03 1.49.04 0-2.93 0-5.86.02-9.74m-338.92 1.35c-9.44 5.49-16.81 1.66-17.58-8.76-.17-2.31-.36-4.66-.11-6.95.63-5.82 5.3-9.84 10.77-9.55 5.5.3 10.41 4.69 10.11 10.25-.27 4.95-1.89 9.84-3.19 15.01m529.84-14.59c.87-7.46 4.19-10.68 10.38-10.52 6.03.15 9.89 4.41 10.06 11.21.05 2.15-.04 4.31-.2 6.45-.5 6.47-3.9 9.67-10.2 9.69-6.1.01-9.55-3.4-9.94-9.92-.13-2.15-.08-4.3-.1-6.91m-63.2 6.97c-.08 6.66-2.1 13.29 1.53 19.44h-12.71c2.38-8.08.47-15.48.35-22.93-.12-7.5 1.21-15.07-.88-23.06h13.28c-1.64 7.45-2.62 14.8.04 22.22.38 1.07-.82 2.7-1.61 4.33m-5.59 2.54c.03 2.64.13 5.28.08 7.92-.06 3.74.33 5.68 1.2 5.96v-18.3c-.82 1.08-1.1 1.29-1.14 1.53-.1.65-.1 1.31-.14 2.89"/><path fill="#dfdfdf" d="M298.81 224.15c.46.65.67 1.46.79 2.58-.4-.59-.72-1.5-.79-2.58m135.16 210.74c.56-.61 1.48-1.16 2.73-1.7-.57.6-1.47 1.18-2.73 1.7m-139.79-210c-.37-.4-.52-.92-.54-1.7.34.37.54.97.54 1.7m1.04 6.97c-.43-.36-.64-.87-.77-1.64.38.32.69.91.77 1.64m62.65 38.94c-.38.4-.89.59-1.66.68.34-.37.93-.63 1.66-.68m-4.52 64.87c.01.19-.11.5-.33.61-.08-.21.18-.48.33-.61m218.99-113.78c-.17 5.89.18 11.46-.75 16.8-2.58 14.72-12.82 25.24-29.67 26.48-20.79 1.52-41.78.36-62.95.36v-74.4c1.45-.11 2.89-.31 4.32-.3 16.47 0 32.96-.37 49.42.26 6.66.25 13.56 1.86 19.8 4.28 11.65 4.51 17.98 13.76 19.83 26.52m-17.04-2.27c-3.41-10.5-11.67-14.17-21.63-14.54-12.49-.46-25-.24-37.49-.28-.6 0-1.19.38-1.64.53v45.57c14.04 0 27.72.52 41.34-.15 12.75-.64 19.94-8.66 20.54-21.43.14-2.95-.53-5.94-1.12-9.7m-3.37-101.73c14.74 8.3 21.12 22.33 17.8 38.55-3.06 14.89-16.97 27.64-32.89 28.27-19.08.76-38.22.18-57.72.18v-71.02c.51-.15 1.11-.49 1.72-.49 17.64.02 35.28-.27 52.91.31 5.98.2 11.89 2.63 18.18 4.2m1.61 24.43c-2.84-7.72-8.52-13.17-16.4-13.68-14.03-.89-28.16-.25-42.5-.25-.07 1.06-.23 2.37-.24 3.67-.04 12-.16 24 .09 35.99.02 1 2.51 2.76 3.88 2.79 10.83.23 21.67.32 32.49.1 17.38-.36 25.84-10.76 22.68-28.62"/></svg>