<svg xmlns="http://www.w3.org/2000/svg" xml:space="preserve" viewBox="0 0 864 452">
<style>
  @keyframes etherealGlow {
    0%, 100% { filter: drop-shadow(0 0 15px rgba(200, 149, 108, 0.4)) drop-shadow(0 0 5px rgba(255, 255, 255, 0.2)); transform: translateY(0px) scale(1); }
    50% { filter: drop-shadow(0 0 35px rgba(200, 149, 108, 0.8)) drop-shadow(0 0 10px rgba(255, 255, 255, 0.5)); transform: translateY(-4px) scale(1.01); }
  }
  @keyframes pathDraw {
    0%, 100% { fill-opacity: 0.8; }
    50% { fill-opacity: 1; }
  }
  .animated-logo-group {
    animation: etherealGlow 6s ease-in-out infinite;
    transform-origin: center;
  }
  .animated-logo-group path {
    animation: pathDraw 8s ease-in-out infinite;
  }
</style>
<g class="animated-logo-group">
<path fill="#f7f7f7" d="M838.368 247.93c.497-12.947.795-25.905 1.601-38.833.275-4.406 3.725-9.588 2.254-12.85-1.424-3.156-7.362-4.209-11.233-6.34-12.55-6.911-19.178-17.613-20.066-31.87-.197-3.154-.284-6.332-.133-9.486.15-3.146-1.279-7.538 3.096-8.508 4.544-1.007 9.39-.675 14.105-.704.09 0 .87 3.276.196 4.18-9.155 12.27-6.876 26.383 6.38 34.287 4.89 2.915 10.784 4.145 16.224 6.134 2.955 1.08 6.052 1.875 8.836 3.29 2.349 1.192 3.711 3.711 1.034 5.583-9.013 6.303-9.837 15.997-10.326 25.4-1.748 33.61.633 66.933 8.962 99.649.973 3.82 3.426 7.264 5.447 10.51.255 1.999.255 4.37-.133 6.901-.953 3.026-1.75 5.867-2.034 8.76-.518 5.296-.237 10.71-1.158 15.921-5.345 30.249-23.192 51.869-48.423 67.804-27.214 17.187-57.513 20.508-88.597 16.556-19.28-2.45-38.277-7.12-57.4-10.802-55.745-10.732-111.641-14.6-167.826-3.442-21.287 4.227-42.169 9.8-61.489 20.07-1.093.582-1.799 1.89-2.685 2.86-1.714 0-3.429 0-5.221-.266-6.994-3.713-13.645-7.896-20.867-10.485-40.977-14.694-83.44-19.987-126.786-18.744-38.117 1.093-75.54 7.23-112.6 15.976-27.021 6.378-54.506 9.63-81.665 2.538-44.587-11.64-75.855-37.604-85.206-85.052-.082-.415-1.083-.649-1.655-.967v-28.531c1.097-1.58 2.87-2.528 3.184-3.829 2.346-9.69 4.876-19.375 6.457-29.206 4.008-24.901 5.418-50.01 4.302-75.215-.226-5.113-.876-10.372-2.432-15.209-1.16-3.606-3.74-6.962-6.336-9.847-3.229-3.588-3.34-5.43 1.106-7.422 2.856-1.28 6.082-1.714 8.98-2.918 6.237-2.59 13.112-4.438 18.387-8.38 10.981-8.205 11.86-21.083 3.238-31.688-2.203-2.709-1.46-4.342 1.65-4.858 2.747-.456 5.65-.78 8.372-.388 4.75.685 8.023 2.961 7.288 8.672-.93 7.222-.477 14.815-2.563 21.656-3.916 12.836-13.671 20.561-26.193 24.718-2.913.967-4.358 2.144-3.333 5.292 6.436 19.762 4.65 39.956 2.176 59.933-2.762 22.293-7.353 44.354-10.297 66.628-6.39 48.355 18.223 87.117 64.686 102.567 25.735 8.558 51.869 7.207 78.055 2.479 27.513-4.968 54.855-11.243 82.548-14.777 59.076-7.538 117.38-3.582 174.015 16.325 6.106 2.146 12.025 6.732 18.027 6.726 6.005-.006 11.935-4.55 18.022-6.765 42.708-15.532 86.97-20.66 132.147-19.476 40.646 1.065 80.441 8.007 120.009 16.91 26.291 5.916 52.804 7.46 79.087-.38 26.437-7.886 46.613-24.06 60.262-47.886 3.89-6.79 5.587-14.835 8.466-23.066.415-5.58 1.267-10.46.774-15.202-1.36-13.058-3.229-26.065-4.995-39.079-2.527-18.624-5.143-37.237-7.72-55.854M485.531 1c1.643.588 2.789 1.622 3.995 1.698 17.457 1.11 34.993 1.414 52.37 3.243 35.769 3.764 71.592 7.407 107.143 12.761 65.254 9.828 130.125 8.95 194.903-3.404 5.66-1.08 11.475-2.305 16.815.93.125.607.359 1.032.233 1.23-9.5 15.023-5.672 31.627-5.424 47.739.041 2.654 1.995 5.648 3.847 7.815 2.578 3.016 2.374 5.734-.367 7.73-3.442 2.507-7.371 4.406-11.242 6.247-4.644 2.208-9.773 3.543-14.12 6.194-12.631 7.704-14.834 21.094-5.65 32.666 2.342 2.952 1.165 4.533-1.783 4.613a45.5 45.5 0 0 1-11.757-1.223c-1.392-.334-3.078-2.63-3.29-4.212-3.119-23.203 5.137-37.577 26.928-46.44 4.445-1.808 5.986-4.083 5.848-8.873-.356-12.32-.086-24.657-.104-36.988-.01-6.138-.496-6.507-6.7-5.366-34.504 6.346-69.29 9.619-104.38 9.397-32.915-.208-65.46-4.476-97.949-9.222C534.875 12.929 434.444 8.708 333.744 16.53c-47.132 3.662-94.07 10.046-141.005 15.921-48.137 6.027-96.065 5.284-143.964-1.953-7.08-1.07-14.171-2.088-21.23-3.291-3.75-.64-5.584.245-5.54 4.502.142 13.496-.113 26.998.15 40.49.035 1.772 1.818 4.107 3.45 5.132 3.924 2.464 8.427 4.004 12.361 6.454 11.152 6.944 16.971 17.084 17.21 30.303.032 1.831.215 3.705-.09 5.488-.528 3.106-.604 8.204-2.252 8.83-4.26 1.62-9.277 1.58-13.987 1.548-2.462-.017-2.696-1.838-1.057-3.856 9.443-11.62 7.566-24.472-5.068-32.57-4.157-2.664-8.972-4.307-13.502-6.384-3.172-1.455-6.527-2.587-9.522-4.339-5.336-3.122-5.39-5.665-2.013-10.632 1.765-2.596 2.96-6.057 3.102-9.187.416-9.146.718-18.366-.018-27.47-.424-5.244-2.53-10.5-4.67-15.404-1.382-3.165-1.295-5.005 2.135-5.226 4.424-.285 8.995-.408 13.33.37 44.59 7.992 89.465 12.8 134.754 9.425 26.547-1.978 52.994-5.59 79.403-9.098C280.165 9.678 324.703 4.973 369.5 2.88c2.385-.112 4.745-.741 6.808-1.505C412.354 1 448.709 1 485.531 1" style="fill:#dfdfdf;fill-opacity:1"/><path fill="#f7f7f7" d="M433.606 434.825c-1.114-.187-2.332-.144-3.327-.593-36.076-16.28-74.33-22.964-113.468-25.283-50.841-3.012-100.691 4.044-150.099 15.484-26.378 6.107-53.038 8.708-79.654 1.59-27.048-7.235-47.552-23.332-61.437-47.685-10.305-18.073-8.978-37.453-6.097-56.972 3.573-24.21 7.617-48.362 10.535-72.65 1.925-16.025 2.556-32.252-2.318-48.102-.293-.951.816-2.392 1.422-3.526.187-.35.869-.434 1.32-.65 21.349-10.18 29.77-24.362 28.68-48.273-.14-3.07-1.408-7.163 2.691-8.058 4.518-.986 9.351-.526 14.047-.696-.034 1.66.626 4.015-.22 4.863-4.097 4.099-5.329 9.003-5.517 14.532-.643 18.85-9.348 32.988-25.488 42.538-2.768 1.639-4.019 3.355-3.638 6.726 3.17 28.1-.365 55.868-4.514 83.577-1.405 9.382-3.61 18.648-4.851 28.046-.468 3.536.787 7.294 1.198 10.957.156 1.39.752 3.207.123 4.134-5.758 8.481-4.277 17.603-2.18 26.535 2.821 12.016 9.848 21.79 18.4 30.395 16.34 16.442 36.41 24.59 59.371 26.342 23.91 1.826 47.078-2.56 70.282-7.441 46.612-9.803 93.599-15.834 141.396-12.698 37.282 2.446 73.596 9.383 108.57 22.845 2.206.85 5.313.855 7.514 0 54.528-21.157 111.074-26.416 168.966-22.336 36.184 2.55 71.528 9.891 106.977 16.939 22.101 4.393 44.442 5.311 66.29-1.483 23.897-7.431 41.903-22.415 52.544-45.192 2.858-6.118 3.672-13.41 4.361-20.269.863-8.587-4.38-16.38-2.257-25.894 1.64-7.347-2.709-15.877-3.59-23.969-2.448-22.5-4.757-45.025-6.51-67.588-.56-7.226.544-14.628 1.373-21.895.389-3.41-.148-5.623-3.192-7.491-16.819-10.323-25.064-25.458-25.885-45.165-.162-3.89-3.184-7.676-4.965-11.474-.667-1.421-1.555-2.738-2.342-4.103 1.533-.845 3.04-2.336 4.605-2.4 3.106-.127 6.349.151 9.342.968 3.524.961 5.253 3.348 4.949 7.497-.363 4.952-.18 10.012.391 14.953 1.88 16.291 11.414 27.014 25.883 33.495 4.511 2.02 5.123 3.987 3.853 8.6-3.901 14.165-3.34 28.7-2.256 44.067 1.56 14.214 2.696 27.624 4.73 40.898 3.462 22.594 9.334 44.9 7.355 68.076-11.771 42.831-48.49 71.146-94.022 73.07-23.101.976-45.347-3.531-67.687-8.435-53.54-11.75-107.593-16.97-162.319-10.593-29.383 3.423-58.115 9.689-85.956 21.94a43 43 0 0 0-3.38 1.847" style="fill:#dfdfdf;fill-opacity:1"/><path fill="#f7f6f6" d="M85.704 50.182c-16.16-1.792-31.859-3.553-48.266-5.393 0 6.405-.197 12.975.163 19.514.073 1.338 2.111 2.709 3.452 3.811 5.39 4.432 11.206 8.407 16.222 13.22 6.912 6.632 11.04 15.057 12.376 24.559 1.154 8.198.392 16.945 8.805 22.18-4.567 3.77-14.935 3.719-18.208.187-.947-1.023-1.173-2.962-1.242-4.503-.214-4.823.136-9.688-.33-14.48-1.55-15.968-11.282-26.105-25.116-32.222-6.501-2.874-8.177-6.54-7.82-13.145.567-10.437.152-20.927.152-32.373 4.935.622 9.311 1.023 13.635 1.742 56.513 9.397 113.064 9.718 169.725 1.22 79.894-11.982 160.19-18.411 241.044-17.145 55.367.868 110.524 4.408 165.44 11.661 27.408 3.62 54.812 7.42 82.319 10.114 42.372 4.151 84.546 1.161 126.497-5.594 4.883-.786 9.773-1.521 15.468-2.406 0 4.441-.003 8.207 0 11.972.01 8.5-.19 17.006.132 25.493.138 3.625-1.046 5.41-4.35 6.68-3.079 1.184-5.94 2.999-8.778 4.73-14.65 8.93-20.854 22.248-20.333 39.123.107 3.447 1.99 7.808-2.48 9.827-5.234 2.363-10.744 3.006-15.987.327-.076-.713-.169-.96-.099-1.02 7.273-6.303 6.98-15.199 8.479-23.638 2.477-13.946 10.808-24.51 22.411-31.766 8.052-5.034 11.127-10.978 9.653-19.985-.393-2.401-.06-4.921-.06-8.096-7.14.886-13.677 1.632-20.194 2.517-51.728 7.02-103.347 5.918-154.93-1.69-67.978-10.026-136.188-17.454-205.036-16.938-4.394.033-8.774 1.324-13.172 1.953-1.619.231-3.3.492-4.9.303-5.195-.613-10.363-2.05-15.545-2.072-63.463-.263-126.456 5.717-189.2 14.72-46.286 6.64-92.657 11.121-139.927 6.613" style="fill:#dfdfdf;fill-opacity:1"/><path fill="#f8f8f8" d="M579.626 194.367c16.966 17.268 17.972 37.376 10.152 58.21-7.762 20.676-24.602 30.398-45.858 31.289-23.126.97-46.321.312-69.486.33-7.163.005-14.336.086-21.484-.274-2.106-.106-4.142-1.604-6.21-2.464 1.123-1.742 1.965-3.778 3.422-5.173 4.775-4.57 6.8-10.133 6.795-16.6-.012-15.5.022-31-.03-46.499-.03-8.496-2.04-16.206-9.27-21.64-2.443-1.835-2.014-3.586.168-5.198 7.314-5.405 9.228-13.054 9.194-21.602-.059-14.833-.166-29.667.02-44.498.093-7.49-2.255-13.644-7.872-18.657-1.247-1.112-1.864-2.93-2.77-4.423 1.684-.89 3.282-2.109 5.076-2.58 2.057-.542 4.289-.564 6.444-.565 25.833-.013 51.665-.022 77.498.058 13.867.043 26.453 3.837 37.87 12.083 21.146 15.274 29.234 58.819-1.718 78.689-.693.445-1.31 1.006-2.114 1.632a1923 1923 0 0 1 10.173 7.882m-23.354-10.536c26.88-15.127 24.698-53.429 4.14-67.75-7.33-5.106-15.424-8.002-24.273-8.162-18.66-.337-37.325-.316-55.987-.466-6.94-.056-7.212.168-7.217 7.309q-.043 74.992-.074 149.985c0 1.166.08 2.335.025 3.498-.13 2.748 1.162 3.931 3.883 3.916 20.495-.11 41.02.446 61.48-.449 19.836-.867 33.4-11.573 38.214-28.317 2.578-8.969 2.88-18.082.579-27.17-3.156-12.464-10.724-21.207-22.558-26.25-1.566-.668-3.124-1.356-5.424-2.355 2.758-1.455 4.657-2.456 7.212-3.79" style="fill:#dfdfdf;fill-opacity:1"/><path fill="#f9f9f9" d="M295.008 231.998c2.52 18.773 18.879 35.362 39.215 38.861 6.802 1.17 13.898.633 21.551.8 1.205-.265 1.718-.454 2.23-.643 20.566-2.076 38.264-19.14 41.863-40.76.948-5.695.945-11.548 1.413-18.052a84 84 0 0 0-.208-4.226c.096-4.014.191-8.028.32-12.873-.049-5.606-.13-10.381-.211-15.157.175-16.483.39-32.967.51-49.45.068-9.164.096-18.332-.102-27.493-.068-3.104.92-4.963 3.794-6.163 6.01-2.51 12.142-3.643 18.515-1.892 4.003 1.099 4.626 3.165 1.445 5.854-6.628 5.603-8.346 12.78-8.237 21.018.192 14.494.061 28.993-.012 43.49-.042 8.187 1.856 15.523 8.516 20.958 2.786 2.273 2.4 4.32-.291 6.433-6.306 4.95-8.14 11.817-8.416 19.467-.251 6.977-.191 14.07-1.467 20.886-5.249 28.052-27.498 48.908-56.895 52.57-26.777 3.337-50.286-3.515-67.795-25.449-7.712-9.66-11.61-20.89-12.672-33.12-.418-4.81-.669-9.648-.712-14.475-.07-7.882-2.3-14.8-8.435-20.047-2.79-2.387-2.277-4.492.13-6.625 6.511-5.767 8.423-13.118 8.25-21.581a1090 1090 0 0 1-.016-43.488c.156-7.961-1.653-14.797-7.845-20.158-1.064-.921-1.75-2.28-2.592-3.41 6.067-5.16 21.519-3.826 25.422 2.096.889 1.348.817 3.473.818 5.241.014 34.826-.04 69.652-.038 104.478 0 4.329.24 8.657.41 13.67.194 1.208.346 1.73.498 2.253.078 1.39.157 2.78.318 4.825.298 1.157.512 1.66.726 2.162" style="fill:#dfdfdf;fill-opacity:1"/><path fill="#f8f8f8" d="M168.557 94.448c21.454-2.234 40.94 1.33 57.717 15.124 8.299 6.823 13.887 15.547 18.38 25.198 2.222 4.771 5.154 9.255 8.136 13.615 2.605 3.81 2.418 5.178-2.215 5.91-3.41.54-6.984.68-10.415.321-5.413-.565-8.705-3.22-10.035-9.194-5.258-23.61-19.247-35.639-43.463-37.416-6.904-.507-14.003-.096-20.866.903-19.687 2.865-31.391 15.074-36.65 33.633-2.029 7.158-3.674 14.718-3.686 22.098-.034 20.616-.5 41.383 1.721 61.817 3.827 35.21 27.523 52.186 62.645 46.944 23.624-3.526 36.382-15.842 41.12-39.206.439-2.159 2.67-5.289 4.464-5.587 5.265-.874 10.762-.945 16.105-.523 2.714.214 3.51 2.303 1.508 5.14-3.313 4.7-6.821 9.462-9.035 14.708-20.71 49.083-88.613 50.258-116.74 19.443-10.059-11.02-15.52-23.904-17.25-38.515-.764-6.447-1.144-12.938-1.755-19.404-.571-6.046-2.912-11.282-7.576-15.27-2.668-2.281-3.404-4.298-.256-6.798 5.923-4.706 7.877-11.287 8.528-18.491.69-7.63 1.162-15.306 2.377-22.857 4.27-26.547 25.858-46.884 53.828-51.075.988-.148 1.977-.29 3.413-.518m227.357 79.578-.266 6.902c.048 5.575.129 10.345.21 15.116-.108 5.7-.215 11.4-.362 17.911a307 307 0 0 0 .008 6.088c-1.046 12.562-4.196 24.353-13.748 33.3-15.148 14.189-33.207 16.114-52.106 10.372-17.397-5.285-26.832-18.155-29.904-36.591a37 37 0 0 0-.69-3.14c.002-39.631.125-79.262-.14-118.89-.036-5.227 1.944-7.688 6.41-9.024 6.952-2.08 13.857-3.153 21.311 1.268-1.461 1.689-2.418 3.185-3.73 4.242-5.331 4.297-7.666 9.958-7.724 16.62-.144 16.486-.266 32.972-.245 49.459.009 7.294 2.22 13.8 8.168 18.527 3.087 2.454 2.182 4.093-.2 6.776-2.982 3.36-6.672 7.497-6.986 11.538-.724 9.31-1.024 19.106 1.122 28.079 3.246 13.567 17.458 21.35 33.415 20.457 13.538-.758 25.815-10.484 28.169-23.556 1.31-7.282 1.208-14.903.981-22.349-.166-5.464-2.765-10.298-7.268-13.712-3.015-2.286-3.737-4.53-.653-7.235 6.716-5.894 8.361-13.575 8.254-22.108-.185-14.653-.143-29.31-.002-43.964.073-7.604-1.973-14.06-8.159-18.941-1.164-.919-1.689-2.648-2.508-4.004 1.51-.89 2.968-2.413 4.542-2.546 3.768-.32 7.68-.484 11.372.184 9.318 1.687 10.624 3.555 10.61 12.812-.033 20.484-.034 40.967-.086 62.174.043 1.894.124 3.064.205 4.235" style="fill:#dfdfdf;fill-opacity:1"/><path fill="#f8f8f8" d="M197.217 115.716c16.147 4.77 24.686 15.69 27.443 31.51.225 1.295-.054 3.132-.855 4.075-4.152 4.89-18.535 5.005-23.853.063.824-.935 1.586-1.956 2.502-2.812 4.236-3.958 4.552-6.404 1.258-11.128a16.5 16.5 0 0 0-2.29-2.63c-16.018-14.883-46.35-7.313-52.1 13.635-2.319 8.453-2.488 17.777-1.965 26.606.248 4.18 4.013 8.462 6.952 12.074 2.333 2.869 3.271 4.582-.058 7.221-5.005 3.968-7.615 9.542-7.303 15.774.414 8.246.844 16.688 2.936 24.605 2.717 10.275 10.248 17.107 20.906 18.33 7.423.851 15.25.2 22.61-1.243 3.797-.745 7.442-4.239 10.295-7.294 3.1-3.318 2.794-7.17-1.024-10.465-3.75-3.237-3.185-5.051 1.689-6.488.478-.14.962-.305 1.454-.35 6.394-.578 14.185-1.535 17.489 4.094 2.027 3.455-.464 10.482-2.507 15.223-5.068 11.757-14.88 18.56-27.23 20.304-8.946 1.263-18.335 1.363-27.286.175-14.572-1.934-24.808-10.73-29.34-24.673-2.8-8.618-4.937-17.842-5.124-26.84-.424-20.435-.996-41.073 1.295-61.31 3.528-31.16 22.48-45.277 58.893-39.841 1.636.244 3.22.835 5.213 1.385" style="fill:#dfdfdf;fill-opacity:1"/><path fill="#f9f9f9" d="M769.805 281.31c-1.37 1.232-2.781 2.74-4.293 2.849-4.116.294-8.307.297-12.408-.142-5.437-.581-8.757-3.586-10.553-9.093-18.421-56.496-37.045-112.926-55.583-169.384-1.926-5.865-1.352-8.01 4.455-9.34 5.658-1.295 11.719-1.373 17.563-1.107 3.465.157 4.367 2.827 1.673 5.59-6.324 6.488-6.295 13.895-3.401 21.804 5.32 14.539 10.64 29.078 15.9 43.64 3.11 8.608 7.498 16.012 16.868 19.07 2.797.913 2.969 2.618 1.505 4.98-4.704 7.59-4.244 15.43-1.188 23.492a2741 2741 0 0 1 14.57 39.342c3.626 10.023 6.828 20.234 14.892 28.3" style="fill:#dfdfdf;fill-opacity:1"/><path fill="#f8f8f8" d="M613.281 232.723c3.09-8.666 6.301-16.881 8.983-25.266 2.21-6.908 2.038-13.833-2.225-20.138-1.782-2.635-1.368-4.276 1.878-4.962 7.842-1.657 12.311-7.118 14.949-14.1 6.351-16.81 12.49-33.702 18.556-50.619 2.427-6.77 1.238-13.024-3.322-18.758-3.05-3.838-2.217-6.595 2.504-6.643 5.991-.06 12.087 1.077 17.964 2.444 3.233.752 4.242 3.425 2.996 7.13-19.298 57.414-38.455 114.876-57.698 172.31-.511 1.524-1.373 3.11-2.51 4.217-4.834 4.714-17.604 5.219-23.579.901 11.74-13.231 14.839-30.475 21.504-46.516m39.242-30.29a95140 95140 0 0 0 29.675-87.965l1.306.024c12.966 38.827 25.93 77.654 39.147 117.23h-79.747c3.229-9.867 6.347-19.396 9.62-29.29m34.44-39.899c-1.185-3.117-2.37-6.235-4-10.528l-22.741 66.753h45.405a83198 83198 0 0 1-18.665-56.225" style="fill:#dfdfdf;fill-opacity:1"/><path fill="#f7f7f7" d="M645.802 259.082c-1.976 7.564-.593 13.533 5.823 17.98 1.36.942 2.071 2.818 3.081 4.264-1.612.983-3.28 2.882-4.827 2.787-6.048-.37-12.14-.994-18.048-2.288-3.24-.71-4.47-3.469-3.213-7.12a1507 1507 0 0 0 10.978-33.187c.846-2.655 2.16-3.627 4.98-3.613 25.328.123 50.657.157 75.986.071 2.888-.01 4.217 1.145 5.038 3.663 3.612 11.08 7.236 22.155 10.975 33.192 1.126 3.322.29 6.065-2.949 6.722-6.074 1.233-12.29 1.873-18.479 2.352-1.29.1-3.447-1.311-3.86-2.495-.362-1.043.774-3.345 1.901-4.053 9.505-5.97 7.159-14.233 4.729-22.608-.752-2.592-2.224-3.705-5.043-3.697-20.163.054-40.327.089-60.487-.13-5.817-.063-5.207 4.446-6.585 8.16" style="fill:#dfdfdf;fill-opacity:1"/><path fill="#ebebeb" d="M640.443 336.594c5.016-5.505 10.684-8.282 17.972-6.775 6.972 1.443 12.161 7.162 13.647 14.137 1.467 6.889.816 13.533-.67 20.258-1.93 8.731-8.03 13.276-17.855 13.127-8.065-.123-14.905-6.064-16.313-14.033-.482-2.725-1.71-5.393-1.75-8.1-.033-2.266 1.204-4.542 1.813-6.831 1.016-3.814 1.98-7.641 3.156-11.783m4.557 30.39-2.437-11.632c-2.301 4.765-1.052 10.938 2.748 14.414l3.485 2.624.759-1.07c-1.477-1.189-2.955-2.378-4.555-4.337m17.129-5.747c.052-1.153.598-2.66.07-3.395-2.063-2.862-1.5-5.33-.55-8.548.698-2.364-.293-6.311-2.036-7.997-1.63-1.577-5.605-2.13-7.905-1.317-4.383 1.55-4.715 5.812-4.324 10.043.2 2.169.245 4.446-.195 6.56-.915 4.4 1.78 10.502 5.39 11.48 4.75 1.29 7.483-.454 9.55-6.826m-17.197-19.595 3.325-4.842c-5.803 2.72-7.994 9.419-5.637 14.365a408 408 0 0 1 2.312-9.523m6.186 31.506h8.14l-.088-1.47c-2.951.397-5.902.793-8.052 1.47" style="fill:#dfdfdf;fill-opacity:1"/><path fill="#ececed" d="M567.742 333.758c-.745-1.12-1.319-1.834-2.952-3.865 10.256 1.112 19.33-2.138 28.013 2.216 5.612 2.815 8.257 7.676 9.582 13.728 1.377 6.29.518 12.367-.6 18.463-1.366 7.458-7.419 12.689-15.017 12.931-6.47.207-12.953.043-18.445.043-.165-14.784-.988-28.956-.581-43.516m10.084 8.133c-.816 6.252 1.263 12.526-.623 18.901-.65 2.196 1.092 7.167 2.493 7.477 3.012.668 7.625.193 9.517-1.787 2.097-2.196 2.011-6.57 2.633-10.039.29-1.62-.156-3.36.015-5.017.406-3.923.564-7.813-3.206-10.277-3.428-2.24-7.088-3.593-10.829.742m8.136-5.753 4.081 1.54.26-1.498c-5.535-3.583-11.902-.838-17.49-1.699v16.436l1.342-.07v-14.704c4.031 0 7.492 0 11.807-.005m10.706 29.83 1.484-9.49-1.464-.198-3.287 14.106c1.46-1.846 2.195-2.776 3.267-4.419m-2-22.797 2.664 10.17c1.528-8.154-.427-12.822-5.27-14.206.78 1.267 1.446 2.35 2.606 4.036" style="fill:#dfdfdf;fill-opacity:1"/><path fill="#ebebeb" d="M375.036 338.198c4.115-7.017 11.33-10.071 18.95-8.26 7.143 1.697 12.009 8.004 13.457 14.998 1.323 6.394 1.316 12.462-.235 18.682-2.278 9.135-9.575 14.487-18.716 13.652-9.093-.83-14.487-7.37-15.825-16.692-1.109-7.725-.455-14.89 2.369-22.38m24.293-.425-3.802-2.165-.598 1.004c1.307.843 2.614 1.686 4.168 3.254l2.859 11.585c2.106-5.616 1.337-9.523-2.627-13.678m-19.226.302c-3.2 3.728-3.632 7.992-2.642 13.27 1.557-4.704 2.884-8.716 4.746-13.174l1.949-1.652-.77-.93c-.877.725-1.755 1.451-3.283 2.486m5.549 1.728c-1.011 3.285-2.244 6.524-2.955 9.874-.47 2.22.055 4.637-.302 6.897-.715 4.516.515 8.535 4.112 10.948 1.65 1.108 5.287.944 7.067-.17 4.081-2.555 4.759-6.702 3.143-11.312-.457-1.303.19-2.952.009-4.403-.423-3.398-.446-7.02-1.728-10.093-1.613-3.868-5.317-3.098-9.346-1.741m-34.577-9.893c9.727 3.314 12.61 7.789 13.856 17.568.611 4.794.8 9.225-.06 13.998-1.65 9.17-8.602 15.875-17.446 15.91-9.512.037-15.266-5.864-17.462-15.607-1.485-6.587-.164-12.58 1.011-18.72 1.703-8.896 9.093-13.663 20.1-13.148m-11.484 8.684c3.892-3.789 8.448-4.057 13.525-2.11.124-.314.248-.63-.064-1.634-5.173-1.606-10.16-2.207-14.65 2.935-.205.333-.41.666-1.278 1.273-2.941 3.554-2.982 7.51-1.704 11.63 1.076-3.714 2.153-7.428 3.487-11.394 0 0 .084-.352.684-.7m13.59 14.988c.356-3.481 1.45-7.114.778-10.384-.368-1.787-3.645-3.971-5.75-4.132-2.176-.166-6.37 1.732-6.49 3.024-.705 7.593-1.374 15.407-.249 22.875.741 4.92 8.019 6.006 11.24 1.062 2.556-3.922 2.608-7.675.47-12.445m-17.107 6.704-.747-4.643-1.833.374 1.946 11.642 1.854-.345c-.38-2.036-.76-4.072-1.22-7.028m2.33 8.148.12 2.432 1.715-.162c-.282-.638-.564-1.277-1.835-2.27m2.617 3.805 1.478.396c.033-.26.112-.744.091-.748-.622-.13-1.254-.214-1.569.352m106.074-15.17c-7.708-5.791-9.978-12.252-7.014-19.051 2.894-6.64 11.098-10.393 19.903-8.867 3.255.564 6.455 1.539 9.616 2.53 3.406 1.066 3.096 3.208.88 5.13-2.104 1.825-4.567 3.235-6.83 3.433-3.04-.731-6.044-1.755-9.126-2.118-3.695-.436-5.725 1.858-5.721 5.347.003 3.573 2.728 4.405 5.817 4.808 3.214.42 6.57.798 9.512 2.034 6.19 2.6 9.425 8.147 8.679 13.704-.859 6.393-6.269 11.847-12.523 13.265-8.33 1.888-15.547-1.931-23.697-3.698l8.849-9.813c5.338 5.958 11.234 7.04 15.63 2.465 1.113-1.157 1.125-3.793.854-5.634-.097-.654-2.502-1.104-3.905-1.404-3.507-.749-7.043-1.357-10.924-2.132m1.258-19.852c-.695-.22-1.673-.85-2.044-.595-5.123 3.512-3.955 12.614 1.905 15.348-3.726-9.57-3.726-9.57.14-14.753m8.044 17.446 6.536.623.2-1.314-14.396-1.993-.37 1.847c2.386.347 4.773.694 8.03.837m-6.531-20.017-1.072.667 1.413.648c.11-.337.22-.673-.341-1.315m99.711 38.976c-12.267 8.487-26.055 2.253-27.753-12.083-.266-2.249-1.259-4.403-1.747-6.637-.226-1.037-.414-2.337.007-3.22 3.281-6.894 2.24-13.687-.312-21.054h12.543c-.305 5.36-1.294 10.824-.699 16.108.472 4.189.846 8.006.16 12.29-.43 2.681 1.828 6.856 4.18 8.69 4.411 3.436 10.975-.846 10.269-7.391-.608-5.632 1.091-10.889.604-16.325-.391-4.357-.906-8.703-1.398-13.362h11.988c-1.367 7.79-.548 15.02.07 22.5.526 6.353.139 15.524-7.912 20.484m-22.412-38.439c-3.07 5.065-.88 10.226-1.406 15.337l1.872.05c0-4.864 0-9.728-.466-15.387m24.99 9.218v-9.5l-1.53.083v15.811l1.226.064c.096-1.839.193-3.677.304-6.458m-26.342 15.015c.302 3.812-.122 7.94 4.176 10.41l-3.053-14.081-.906.134c-.097.875-.195 1.75-.217 3.537" style="fill:#dfdfdf;fill-opacity:1"/><path fill="#e6e6e6" d="M237.14 330.52c1.893 4.87 3.275 9.733 4.866 14.525 2.785 8.39 5.663 16.75 8.584 25.093.746 2.131 1.8 4.154 2.902 6.657h-13.52c.284-1.087.382-2.047.775-2.866 1.595-3.324-.104-4.765-3.08-4.994-3.137-.241-6.318-.145-9.464.049-6.448.396-7.238 1.73-4.666 7.916H210.73c2.15-5.73 4.185-11.337 6.356-16.89 2.484-6.35 5.398-12.552 7.51-19.02 1.025-3.141.65-6.74.937-10.508 3.652 0 7.421 0 11.607.039m-6.147 19.998-4.024 9.532h9.885l-4.275-14.524c-.698 2.083-1.061 3.165-1.586 4.992m-5.037-1.225-.546 3.38c3.134-5.025 5.533-10.185 7.582-15.48.32-.824-.96-2.267-1.67-3.787-2.02 5.841-3.625 10.488-5.366 15.887m-5.12 11.85-1.932 5.747 7.948-1.665c-7.296-1.545-1.988-6.524-3.857-9.757-.66 1.629-1.32 3.257-2.159 5.675m22.36-.859-1.374-5.662c-1.773 6.983-.976 10.65 2.596 13.192-.427-2.545-.774-4.611-1.221-7.53" style="fill:#dfdfdf;fill-opacity:1"/><path fill="#ebebeb" d="M194.968 370.592c.572 2.267 1.153 4.08 1.846 6.245h-13.726c2.626-7.175 2.958-14.166.6-21.258-.27-.809.03-1.858.238-2.756.143-.622.68-1.146.868-1.765 3.06-10.111.189-12.815-11.37-10.152l-.552-11.387h33.612v11.413c-3.052-.614-5.697-1.463-8.36-1.522-1.012-.023-2.943 1.777-2.94 2.74.014 3.572.644 7.143 1.083 10.71.078.631.559 1.262.495 1.856-.548 5.146-1.179 10.283-1.794 15.876m-2.532-36.521h-15.185l.101 1.728c8.224.769 16.444 1.227 24.652.288l.051-1.518zm99.708-4.984h33.894l-1.265 11.817c-2.478-.551-4.91-1.258-7.393-1.601-2.84-.392-4.582.906-4.255 3.95.329 3.06.917 6.095 1.407 9.139.127.79.508 1.59.434 2.352-.533 5.488-1.298 10.959-1.658 16.457-.111 1.692.806 3.452 1.355 5.578h-12.96c1.39-7.306 3.528-14.596-.46-21.817-.33-.598-.058-1.597.092-2.379.79-4.092 1.63-8.174 2.746-13.72-4.738.67-8.027 1.136-11.83 1.088-.378-3.963-.242-7.414-.107-10.864m18.48 4.835h-7.433l-.124 1.363c8.004 3.073 1.183 10.87 5.252 15.347.536-2.421.537-4.797.536-7.173-.004-7.676-.005-7.668 7.805-7.388 1.438.051 2.88.007 4.32.007l.014-2.114c-3.141 0-6.283 0-10.37-.042m-20.594 7.093c-2.34-.473-4.672-.987-7.021-1.408-3.215-.576-5.382.412-4.967 4.08.343 3.025 1.103 6.001 1.618 9.009.132.77.298 1.694.007 2.351-3.2 7.224-1.322 14.367.062 21.842H267.57c.217-4.904 1.048-9.767.481-14.462-.684-5.662-.463-11.1.149-16.741.668-6.158-2.193-7.804-8.224-5.766-.757.256-1.444.713-2.624 1.31l-1.002-11.963c10.732 0 21.53 0 32.803.437.61 4.062.743 7.686.877 11.311m-16.067 1.124c-.596-9.436 7.407-4.39 11.105-7.375H261.36l-.01 1.334c2.737 0 5.51-.277 8.204.062 4.536.571 2.005 4.428 2.575 7.62v7.133l1.724-.037c0-2.64 0-5.28.11-8.737m224.039-12.094 14.79-.001-1.037 10.506c-.658.148-.983.306-1.29.277-2.972-.282-5.942-.596-8.912-.9-.064 3.688-.213 7.378-.147 11.065.024 1.331 1.178 2.897.765 3.94-2.838 7.176-.875 14.207-.003 21.748h-12.33c1.487-7.22 2.87-14.216-.347-21.259-.449-.983.155-2.442.255-3.682.272-3.396.846-6.815.598-10.174-.067-.903-2.621-2.225-4.078-2.285-2.358-.098-4.753.69-7.54 1.173v-10.408zm5.3 5.011h-20.068c2.18.856 4.335 1.004 6.463.825 4.15-.35 5.758 1.417 5.363 5.535-.255 2.65-.048 5.343-.048 8.017.934-3.853.296-8.603 2.362-11.208 1.81-2.282 6.658-2.154 10.43-3.162-1.316 0-2.44 0-4.503-.007m-6.472 28.44v-6.653l-1.508.08v16.275l1.49.043c0-2.93 0-5.859.018-9.746" style="fill:#dfdfdf;fill-opacity:1"/><path fill="#f7f7f7" d="M157.906 364.852c-9.43 5.484-16.803 1.659-17.579-8.76-.171-2.31-.359-4.663-.11-6.95.635-5.826 5.302-9.845 10.776-9.55 5.493.295 10.402 4.692 10.105 10.244-.265 4.956-1.89 9.839-3.192 15.016" style="fill:#dfdfdf;fill-opacity:1"/><path fill="#f9f9f9" d="M687.75 350.259c.875-7.46 4.194-10.681 10.381-10.52 6.028.156 9.885 4.413 10.055 11.214.054 2.148-.033 4.309-.198 6.452-.5 6.468-3.903 9.667-10.197 9.683-6.098.016-9.555-3.4-9.941-9.919-.128-2.147-.08-4.304-.1-6.91" style="fill:#dfdfdf;fill-opacity:1"/><path fill="#ebebeb" d="M624.549 357.227c-.075 6.667-2.1 13.294 1.531 19.447h-12.71c2.385-8.086.465-15.48.346-22.93-.12-7.504 1.214-15.071-.872-23.063h13.276c-1.637 7.445-2.623 14.796.037 22.217.383 1.07-.813 2.705-1.608 4.329m-5.594 2.54c.035 2.642.135 5.284.088 7.923-.067 3.741.322 5.682 1.194 5.965v-18.308c-.819 1.083-1.097 1.29-1.137 1.535-.104.645-.105 1.308-.145 2.886" style="fill:#dfdfdf;fill-opacity:1"/><path fill="#161617" d="M298.808 224.152c.458.645.668 1.459.793 2.582-.405-.598-.724-1.506-.793-2.582" style="fill:#dfdfdf;fill-opacity:1"/><path fill="#181818" d="M433.972 434.892c.555-.613 1.476-1.16 2.724-1.7-.568.593-1.463 1.18-2.724 1.7" style="fill:#dfdfdf;fill-opacity:1"/><path fill="#161617" d="M294.178 224.892c-.366-.404-.518-.926-.54-1.697.337.36.546.97.54 1.697m1.046 6.97c-.43-.367-.644-.869-.776-1.64.386.322.69.913.776 1.64m62.649 38.942c-.381.4-.894.59-1.666.672.339-.365.937-.625 1.666-.672" style="fill:#dfdfdf;fill-opacity:1"/><path fill="#464745" d="M353.345 335.67c.018.185-.106.5-.32.61-.09-.206.178-.48.32-.61" style="fill:#dfdfdf;fill-opacity:1"/><path fill="#fafafa" d="M572.337 221.89c-.17 5.889.183 11.458-.752 16.802-2.574 14.714-12.813 25.239-29.668 26.474-20.789 1.524-41.774.365-62.946.365v-74.404c1.45-.106 2.885-.302 4.318-.301 16.474.004 32.964-.362 49.416.26 6.665.252 13.562 1.866 19.802 4.283 11.652 4.514 17.98 13.757 19.83 26.52m-17.033-2.27c-3.409-10.5-11.675-14.173-21.638-14.542-12.484-.461-24.993-.239-37.491-.273-.59-.002-1.18.374-1.638.529V250.9c14.045 0 27.724.524 41.344-.153 12.753-.633 19.94-8.656 20.538-21.422.138-2.953-.524-5.943-1.115-9.706" style="fill:#dfdfdf;fill-opacity:1"/><path fill="#f9f9f9" d="M551.931 117.89c14.744 8.302 21.123 22.335 17.797 38.547-3.056 14.895-16.963 27.645-32.886 28.275-19.082.754-38.217.178-57.718.178v-71.024c.506-.15 1.11-.485 1.713-.485 17.638.02 35.288-.274 52.908.312 5.986.199 11.897 2.63 18.186 4.197m1.611 24.428c-2.846-7.718-8.519-13.172-16.4-13.675-14.03-.896-28.158-.252-42.5-.252-.073 1.06-.233 2.367-.238 3.674-.047 11.998-.162 23.997.083 35.99.02.995 2.513 2.75 3.887 2.78 10.826.238 21.663.325 32.49.104 17.379-.355 25.835-10.763 22.678-28.621" style="fill:#dfdfdf;fill-opacity:1"/>
</g>
</svg>