<?xml version="1.0" standalone="no"?>
<!DOCTYPE svg PUBLIC "-//W3C//DTD SVG 20010904//EN"
 "http://www.w3.org/TR/2001/REC-SVG-20010904/DTD/svg10.dtd">
<svg version="1.0" xmlns="http://www.w3.org/2000/svg"
 width="960.000000pt" height="960.000000pt" viewBox="0 0 960.000000 960.000000"
 preserveAspectRatio="xMidYMid meet">
<metadata>
Created by potrace 1.10, written by Peter Selinger 2001-2011
</metadata>
<g transform="translate(0.000000,960.000000) scale(0.100000,-0.100000)"
fill="#000000" stroke="none">
<path d="M0 4800 l0 -4800 4800 0 4800 0 0 4800 0 4800 -4800 0 -4800 0 0
-4800z m4839 1986 c40 -10 148 -16 376 -19 176 -3 381 -10 455 -16 432 -36
516 -43 625 -57 149 -18 318 -40 455 -59 495 -68 635 -78 1021 -72 189 3 373
10 409 15 36 6 126 19 200 28 74 9 166 22 203 30 105 21 230 29 255 15 l22
-12 -23 -32 c-34 -46 -47 -120 -47 -263 0 -134 12 -205 42 -243 25 -33 23 -45
-13 -75 -36 -30 -86 -54 -144 -68 -61 -14 -138 -78 -169 -139 -38 -76 -31
-140 21 -203 29 -34 17 -56 -31 -56 -60 0 -105 19 -112 46 -13 50 3 207 25
256 28 62 118 142 203 181 45 21 70 38 74 52 2 11 3 115 2 230 l-3 210 -70 -3
c-38 -2 -86 -8 -105 -13 -19 -6 -75 -14 -125 -19 -49 -4 -126 -13 -170 -19
-306 -41 -734 -40 -1065 0 -47 6 -123 14 -170 19 -47 4 -114 12 -150 18 -87
15 -207 31 -310 42 -47 5 -119 13 -160 19 -133 19 -262 32 -408 42 -79 5 -148
12 -154 15 -6 4 -108 11 -227 15 -119 4 -343 13 -499 19 -214 9 -358 9 -595 0
-464 -17 -694 -28 -772 -39 -38 -6 -97 -10 -130 -10 -57 -1 -179 -14 -415 -46
-58 -8 -125 -16 -150 -19 -50 -4 -180 -21 -279 -37 -36 -6 -108 -14 -160 -19
-53 -5 -125 -13 -161 -19 -141 -20 -469 -34 -655 -27 -283 9 -432 22 -655 57
-176 27 -212 30 -226 18 -11 -9 -14 -54 -14 -223 0 -116 4 -216 8 -222 4 -7
38 -26 75 -42 86 -39 137 -79 176 -139 39 -58 50 -100 56 -203 6 -106 -6 -126
-80 -135 -32 -4 -61 -3 -74 4 -20 11 -20 12 14 60 57 79 47 169 -29 249 -36
39 -78 63 -167 93 -76 26 -129 64 -129 92 0 11 10 36 23 56 21 34 22 46 22
231 0 184 -1 197 -22 233 -13 21 -23 45 -23 52 0 29 77 36 175 17 86 -17 362
-58 485 -73 58 -7 254 -14 435 -17 367 -4 534 8 1000 73 291 41 553 72 765 90
395 33 479 38 800 44 235 4 341 10 355 18 26 16 46 16 114 -1z m796 -182 c238
-16 496 -39 615 -55 41 -5 122 -14 180 -19 58 -6 121 -15 140 -20 19 -6 53
-10 75 -10 21 0 82 -7 135 -14 336 -52 526 -68 840 -73 281 -5 459 5 715 39
44 6 109 14 145 19 36 4 80 13 99 18 22 7 40 7 52 0 17 -9 19 -24 19 -188 0
-201 3 -194 -90 -238 -141 -68 -240 -233 -227 -376 10 -103 -23 -135 -125
-121 -47 6 -65 25 -34 37 25 10 57 94 63 164 10 131 103 270 246 367 l57 39 0
94 c0 110 -1 110 -93 94 -122 -21 -335 -41 -545 -52 -234 -12 -568 -1 -787 27
-142 17 -318 40 -470 59 -60 8 -164 21 -230 29 -66 9 -183 22 -260 31 -77 8
-185 19 -240 25 -123 13 -413 28 -770 39 -220 7 -280 6 -324 -6 -47 -12 -60
-12 -90 0 -30 12 -83 13 -316 6 -404 -12 -642 -26 -875 -50 -113 -11 -243 -24
-290 -29 -47 -5 -114 -13 -150 -19 -94 -15 -455 -62 -660 -85 -154 -18 -462
-36 -595 -36 -177 0 -561 32 -737 62 -97 16 -98 15 -98 -94 l1 -93 74 -54
c146 -106 219 -217 231 -352 7 -78 22 -118 58 -157 21 -24 21 -24 1 -39 -23
-17 -117 -12 -141 8 -10 8 -14 35 -14 98 0 189 -72 303 -251 398 l-54 28 -5
170 c-6 190 -4 211 14 218 7 3 42 -1 77 -8 68 -15 219 -36 409 -57 152 -17
731 -17 910 0 132 12 252 28 456 57 56 8 117 15 135 15 19 0 50 5 69 10 19 6
80 15 135 20 112 10 234 23 405 45 63 8 151 15 195 15 44 0 118 5 165 11 230
29 1349 31 1755 3z m-3090 -708 c98 -26 222 -94 284 -156 59 -58 116 -146 145
-222 10 -25 36 -67 57 -93 36 -43 38 -50 25 -64 -11 -10 -36 -15 -83 -15 -81
-1 -127 18 -131 54 -6 49 -42 152 -64 183 -86 126 -195 187 -358 201 -185 15
-333 -28 -420 -121 -55 -58 -90 -107 -90 -126 0 -7 -4 -17 -9 -23 -5 -5 -19
-49 -31 -99 -41 -163 -44 -658 -5 -789 8 -27 15 -58 15 -68 0 -34 61 -147 107
-198 57 -64 114 -97 206 -121 149 -39 340 -16 457 54 94 57 171 180 189 302 6
36 10 41 56 58 57 22 139 18 164 -8 14 -13 11 -19 -21 -52 -20 -21 -48 -67
-63 -103 -100 -241 -300 -380 -570 -397 -228 -13 -402 49 -545 196 -108 111
-152 220 -165 411 -11 157 -39 245 -86 271 -28 15 -23 42 16 83 42 45 53 82
65 216 22 234 59 336 165 445 97 99 223 168 350 191 87 16 260 11 340 -10z
m812 9 c28 -8 55 -21 61 -28 7 -8 12 -216 14 -627 l4 -615 26 -69 c71 -186
211 -299 406 -325 226 -30 426 65 526 249 60 110 59 101 65 769 l6 614 40 21
c50 26 166 29 191 4 15 -14 13 -19 -19 -54 -68 -76 -67 -73 -67 -389 0 -282 0
-286 24 -333 13 -26 36 -58 50 -71 32 -30 33 -44 2 -64 -13 -9 -35 -40 -50
-68 -22 -46 -26 -66 -26 -145 0 -305 -141 -519 -412 -628 -21 -8 -85 -23 -142
-32 -100 -17 -109 -17 -215 -1 -267 43 -447 187 -526 421 -18 53 -35 183 -35
272 0 68 -34 150 -76 183 -13 10 -24 22 -24 26 0 4 17 26 38 50 21 24 44 61
50 83 8 26 12 133 12 318 l0 279 -26 45 c-14 25 -32 49 -40 53 -7 4 -19 17
-24 28 -10 17 -7 21 22 34 43 18 83 19 145 0z m327 6 c55 -13 60 -23 27 -57
-66 -67 -70 -84 -76 -363 -8 -313 0 -361 74 -438 17 -18 31 -35 31 -39 0 -3
-11 -15 -24 -25 -43 -34 -68 -86 -76 -161 -20 -179 39 -315 163 -380 35 -18
59 -22 142 -22 116 0 159 16 229 89 57 59 76 123 76 259 0 116 -13 157 -64
205 -14 14 -26 32 -26 41 0 9 12 27 26 41 14 13 35 41 45 61 17 34 19 62 19
333 l0 296 -25 43 c-14 24 -34 51 -45 61 -11 10 -20 24 -20 31 0 34 136 39
196 8 l39 -21 3 -604 c2 -658 4 -635 -56 -757 -30 -63 -110 -140 -178 -175
-119 -60 -327 -58 -446 5 -113 60 -198 178 -218 306 -6 31 -10 319 -10 638 0
645 -6 594 71 618 54 17 73 18 123 7z m2155 -2 c245 -39 390 -172 431 -396 16
-86 9 -167 -19 -247 -23 -67 -86 -153 -136 -188 -43 -29 -44 -41 -2 -67 140
-87 209 -260 182 -456 -15 -108 -35 -164 -80 -225 -65 -88 -128 -134 -243
-178 l-67 -25 -450 -4 c-438 -4 -544 0 -552 23 -2 7 10 27 28 45 66 72 69 84
69 392 0 278 0 278 -26 332 -14 30 -36 63 -50 74 -30 24 -30 32 2 62 14 13 37
45 50 71 24 47 24 51 24 333 0 317 0 316 -67 387 -39 40 -37 53 10 67 45 13
817 13 896 0z m1236 -15 c20 -9 39 -23 42 -30 3 -9 -371 -1156 -447 -1369 -6
-16 -20 -59 -31 -95 -12 -36 -27 -81 -34 -100 -8 -19 -21 -59 -30 -88 -18 -58
-41 -75 -110 -86 -50 -7 -137 5 -142 21 -2 6 11 26 29 45 32 32 84 146 134
298 10 30 21 60 25 65 4 6 12 26 17 45 6 19 20 60 32 90 64 168 74 227 46 281
-7 14 -16 37 -19 51 -6 24 -2 29 38 48 62 30 106 85 137 172 14 40 40 111 58
158 122 330 130 370 80 436 -16 21 -30 44 -30 51 0 34 139 39 205 7z m319 11
l37 -16 -29 -37 c-32 -41 -45 -74 -44 -112 1 -27 35 -137 75 -241 14 -35 40
-104 57 -154 18 -49 39 -108 48 -130 24 -61 81 -125 129 -147 24 -10 43 -23
43 -29 0 -5 -9 -27 -20 -49 -27 -54 -26 -122 5 -206 14 -38 35 -96 47 -129 11
-33 26 -73 33 -90 7 -16 27 -70 44 -120 18 -49 39 -105 47 -123 8 -18 14 -37
14 -42 0 -12 40 -70 68 -98 13 -13 21 -29 19 -35 -10 -30 -157 -29 -209 1 -24
14 -58 78 -58 109 0 7 -6 27 -14 45 -8 18 -23 62 -35 98 -22 71 -40 124 -52
155 -4 11 -39 117 -78 235 -76 232 -76 233 -120 360 -16 47 -75 224 -131 394
l-101 309 21 21 c44 44 138 58 204 31z m-4836 -206 c117 -44 210 -160 220
-275 l4 -51 -48 -17 c-56 -19 -80 -20 -140 -5 -48 12 -55 27 -24 47 69 43 30
125 -85 178 -67 32 -181 33 -257 3 -111 -43 -162 -124 -180 -284 -11 -91 -10
-111 5 -158 10 -32 31 -69 53 -91 l36 -37 -40 -52 c-62 -82 -74 -140 -53 -268
19 -113 30 -140 85 -195 43 -42 66 -56 122 -74 50 -15 82 -19 114 -15 110 15
187 53 220 108 25 41 26 40 -12 82 -29 34 -30 37 -15 53 24 23 141 22 185 -1
26 -14 32 -23 32 -51 0 -50 -37 -139 -78 -186 -78 -92 -180 -130 -345 -130
-356 0 -467 180 -467 756 0 383 70 575 237 654 68 32 122 39 253 36 92 -2 128
-8 178 -27z m4677 -220 c41 -123 80 -237 86 -254 6 -16 14 -43 19 -60 5 -16
18 -55 29 -85 12 -30 26 -71 31 -90 5 -19 32 -102 59 -184 28 -82 51 -159 51
-172 l0 -24 -364 0 c-203 0 -367 4 -370 9 -3 5 1 28 9 52 8 24 27 78 41 119
14 41 29 89 34 105 4 17 14 46 21 65 27 78 37 108 53 160 9 30 23 71 31 90 7
19 37 107 66 195 109 331 105 323 121 307 5 -5 43 -110 83 -233z m-6107 0 c17
-6 35 -22 41 -37 13 -30 7 -161 -9 -221 -13 -49 -61 -120 -111 -166 -41 -36
-134 -85 -164 -85 -18 0 -18 -1 6 -105 6 -27 14 -113 17 -190 10 -214 -12
-419 -94 -850 -12 -63 -18 -143 -18 -265 0 -174 0 -176 30 -246 17 -40 45 -93
63 -118 17 -26 31 -50 31 -53 0 -23 156 -184 225 -231 22 -15 42 -30 43 -34 2
-5 9 -8 15 -8 6 0 18 -6 26 -13 18 -15 140 -67 211 -90 135 -44 179 -49 406
-44 202 5 308 16 414 45 44 11 160 36 265 56 44 8 107 20 140 27 33 7 92 15
130 19 39 4 113 12 165 19 192 22 419 34 575 28 216 -8 412 -24 455 -37 19 -5
53 -10 76 -10 22 0 63 -6 90 -13 27 -8 85 -22 129 -31 44 -9 94 -22 110 -28
17 -5 46 -14 65 -18 49 -11 184 -62 251 -93 66 -32 71 -32 112 -11 54 28 66
34 104 48 68 24 157 53 213 69 30 9 78 23 107 32 28 8 60 15 70 15 10 0 50 6
88 14 211 45 555 72 785 62 326 -13 542 -34 667 -62 34 -8 77 -14 94 -14 18 0
55 -6 83 -14 56 -16 132 -32 213 -45 28 -5 57 -12 63 -16 6 -4 36 -11 68 -16
31 -5 82 -14 112 -19 90 -17 439 -14 502 4 29 8 82 22 118 32 36 10 76 23 90
29 105 50 149 75 193 107 97 73 150 124 206 198 69 93 74 101 106 170 15 30
31 63 36 73 16 28 22 281 10 382 -5 50 -17 128 -25 175 -29 167 -37 216 -48
265 -10 51 -22 183 -34 378 -8 123 10 326 33 370 16 33 11 57 -12 57 -34 0
-142 63 -185 109 -70 74 -91 125 -97 240 -7 130 -3 147 45 160 51 15 85 14
108 -3 19 -14 19 -15 -3 -38 -29 -30 -53 -89 -53 -129 0 -17 14 -57 30 -88 37
-69 100 -118 185 -145 169 -52 185 -67 131 -120 -61 -62 -71 -111 -71 -356 0
-118 6 -255 13 -305 18 -125 41 -268 57 -345 8 -36 17 -90 20 -120 3 -30 15
-74 27 -98 14 -29 18 -51 13 -70 -4 -15 -10 -81 -15 -147 -10 -153 -21 -199
-78 -310 -118 -234 -321 -422 -550 -509 -134 -51 -262 -78 -437 -91 -115 -9
-345 16 -515 55 -52 12 -113 26 -135 30 -168 34 -214 43 -325 61 -69 12 -143
23 -165 25 -462 52 -847 45 -1220 -21 -75 -13 -258 -59 -380 -95 -56 -16 -110
-39 -193 -79 -45 -23 -90 -41 -98 -41 -9 0 -34 11 -57 24 -23 13 -67 34 -97
46 -30 12 -64 26 -75 31 -53 23 -323 94 -435 115 -218 40 -334 49 -645 49
-391 0 -662 -27 -995 -100 -258 -56 -346 -74 -425 -83 -182 -23 -266 -24 -395
-8 -253 34 -389 83 -555 201 -257 183 -413 459 -415 732 0 45 -5 93 -11 107
-9 20 -8 32 9 68 11 24 23 61 27 83 12 81 36 221 45 262 26 117 50 377 50 545
0 209 -13 275 -68 338 -19 22 -32 47 -29 54 7 17 69 46 166 77 85 27 145 76
180 146 35 70 24 163 -23 202 -51 42 22 78 102 50z m255 -8 c8 -8 5 -17 -10
-33 -36 -40 -50 -81 -57 -168 -12 -149 -91 -277 -228 -367 -45 -30 -49 -40
-37 -89 26 -114 -3 -530 -56 -809 -42 -217 -47 -269 -32 -304 13 -31 13 -38
-6 -80 -17 -39 -19 -58 -14 -139 7 -99 18 -132 76 -222 120 -188 278 -304 501
-367 89 -26 108 -27 290 -27 195 0 251 6 438 49 231 54 299 67 632 115 268 39
886 39 1125 0 324 -53 524 -106 720 -190 l49 -21 66 26 c104 43 192 74 240 86
19 4 80 19 135 33 253 63 426 85 739 94 332 9 639 -8 871 -50 33 -5 87 -14
120 -19 59 -8 182 -33 320 -65 39 -9 90 -20 115 -25 25 -4 70 -13 100 -20 31
-6 143 -12 255 -12 173 0 210 2 275 21 199 55 307 117 427 245 73 79 158 217
167 273 19 127 19 159 -4 212 -20 45 -21 56 -10 82 14 35 11 74 -24 265 -58
311 -83 615 -67 789 6 59 8 112 5 117 -3 5 -26 23 -52 40 -133 90 -197 203
-220 392 -8 63 -16 87 -42 123 l-31 44 25 11 c32 15 112 3 136 -21 14 -14 17
-30 13 -82 -2 -36 1 -85 7 -109 6 -24 14 -55 17 -69 7 -28 64 -122 91 -149 33
-33 97 -77 141 -96 l43 -19 -7 -50 c-3 -27 -10 -57 -16 -67 -15 -28 -11 -342
6 -479 22 -170 43 -312 60 -390 37 -176 47 -277 42 -421 -3 -96 -10 -158 -20
-185 -19 -48 -64 -132 -83 -155 -8 -8 -14 -21 -14 -28 0 -17 -202 -218 -232
-231 -13 -6 -36 -19 -53 -29 -16 -11 -50 -29 -75 -41 -25 -11 -58 -28 -73 -35
-16 -8 -36 -15 -44 -15 -8 0 -36 -7 -62 -15 -201 -63 -462 -54 -836 30 -256
57 -458 92 -615 105 -52 5 -144 13 -205 19 -240 24 -726 5 -906 -34 -37 -8
-75 -15 -85 -15 -21 0 -140 -26 -194 -43 -19 -6 -51 -14 -70 -18 -85 -19 -174
-50 -296 -102 l-81 -35 -47 23 c-27 13 -56 26 -65 28 -9 3 -41 15 -71 27 -30
12 -75 27 -100 35 -129 37 -168 48 -205 55 -22 4 -60 12 -85 18 -59 15 -207
38 -345 54 -233 27 -818 12 -1031 -27 -45 -8 -97 -15 -116 -15 -19 0 -48 -4
-64 -10 -16 -5 -58 -14 -94 -20 -36 -5 -83 -14 -105 -19 -22 -5 -74 -17 -115
-26 -41 -9 -102 -23 -135 -30 -125 -29 -332 -48 -439 -42 -303 19 -572 137
-729 320 -53 62 -137 186 -137 203 0 5 -5 15 -12 22 -42 42 -62 310 -33 447 8
38 15 87 15 107 0 20 5 49 11 65 6 15 14 55 19 88 4 33 13 89 19 125 34 209
41 291 41 478 0 147 -4 211 -15 248 -8 27 -15 56 -15 64 1 8 27 27 59 43 65
31 146 103 182 162 39 63 51 112 58 230 l6 110 35 12 c39 14 106 11 123 -6z
m6155 -924 c13 -15 122 -338 122 -360 0 -39 -122 -74 -200 -58 -47 9 -48 29
-5 76 20 22 38 51 42 65 8 30 -12 130 -30 147 -17 18 -621 21 -642 3 -15 -12
-35 -85 -35 -128 0 -17 13 -46 33 -72 17 -24 36 -49 42 -56 19 -26 -12 -38
-90 -37 -80 2 -145 28 -145 60 0 21 110 345 122 361 15 18 771 17 786 -1z
m-4853 -726 c1 -33 -2 -41 -16 -41 -10 0 -21 5 -24 10 -11 17 -39 10 -57 -14
-18 -25 -18 -51 1 -109 10 -29 10 -41 1 -52 -12 -15 -15 -112 -4 -158 7 -28 6
-28 -31 -21 -27 5 -40 3 -46 -7 -6 -11 -11 -11 -20 -2 -9 9 -9 19 1 42 8 21
10 50 5 89 -9 78 -9 110 2 158 9 36 7 44 -13 63 -23 22 -49 27 -59 11 -3 -5
-12 -10 -20 -10 -14 0 -19 71 -5 80 5 3 70 4 146 4 l138 -2 1 -41z m635 38
c52 -1 107 2 122 6 27 7 28 6 27 -36 -2 -59 -6 -62 -40 -42 -28 16 -29 16 -44
-2 -12 -16 -15 -37 -11 -95 3 -41 2 -83 -2 -94 -5 -10 -5 -50 0 -89 7 -73 0
-99 -21 -73 -9 11 -18 12 -41 3 -36 -14 -47 -5 -32 28 17 37 15 121 -4 150
-14 21 -14 26 0 54 38 73 2 143 -62 119 -17 -7 -33 -10 -35 -8 -2 3 -2 24 1
48 4 39 7 43 26 38 11 -2 64 -6 116 -7z m499 -24 c-1 -16 0 -34 2 -40 6 -16
-10 -18 -42 -5 -26 11 -32 10 -50 -6 -17 -16 -20 -26 -15 -69 3 -27 6 -61 5
-75 -1 -14 -2 -67 -2 -117 -1 -81 -3 -93 -19 -93 -9 0 -20 5 -23 11 -5 7 -14
4 -26 -7 -24 -21 -21 -42 -30 206 0 14 2 43 5 65 8 56 -10 99 -38 90 -47 -15
-66 -17 -66 -7 0 6 4 13 8 16 5 3 7 18 5 33 l-5 28 146 0 146 0 -1 -30z m332
3 c39 -29 73 -121 71 -193 -1 -26 -17 -104 -27 -130 -12 -31 -57 -75 -76 -75
-10 0 -21 -4 -24 -10 -14 -22 -104 -4 -151 30 -30 21 -54 73 -54 115 0 19 -6
44 -12 55 -10 16 -10 24 0 40 6 11 12 37 12 57 0 59 54 125 110 136 44 9 123
-5 151 -25z m369 22 c28 0 89 -69 96 -109 3 -20 11 -50 16 -66 8 -22 7 -45 -1
-80 -7 -28 -15 -61 -18 -75 -12 -55 -91 -110 -157 -110 -38 0 -102 36 -128 71
-11 14 -21 46 -23 71 -2 25 -9 55 -15 65 -10 15 -9 29 4 66 9 26 16 58 16 70
0 29 54 85 89 93 14 3 31 7 36 9 6 2 23 2 39 0 16 -3 36 -5 46 -5z m693 -12
c24 -12 21 -25 -10 -53 -32 -28 -51 -31 -59 -10 -8 21 -69 19 -94 -2 -11 -10
-20 -30 -20 -45 0 -26 3 -28 40 -28 27 0 43 -5 46 -15 4 -8 18 -15 33 -15 61
-1 109 -80 95 -158 -8 -40 -58 -85 -90 -79 -14 2 -25 -2 -28 -9 -7 -18 -44
-18 -120 2 -80 21 -86 27 -50 64 31 32 68 39 78 15 4 -10 20 -15 53 -15 37 0
53 6 71 24 l22 24 -29 31 c-24 25 -35 30 -55 25 -41 -10 -107 27 -140 78 -28
43 -8 122 39 158 36 27 171 32 218 8z m413 -25 c0 -52 -3 -55 -38 -37 -29 15
-32 15 -49 -3 -23 -23 -27 -70 -10 -111 11 -27 12 -37 1 -57 -9 -17 -11 -48
-8 -103 l6 -78 -50 0 -50 1 7 65 c3 36 1 81 -4 99 -8 24 -7 55 0 100 9 59 8
66 -10 85 -20 20 -22 20 -51 3 -16 -10 -31 -17 -31 -15 -3 7 -6 83 -4 88 2 3
68 4 147 3 l143 -1 1 -39z m165 34 c30 5 47 -13 30 -30 -15 -15 -14 -112 1
-154 10 -27 10 -38 0 -53 -18 -30 -15 -55 14 -89 33 -40 83 -43 112 -7 17 22
19 41 18 181 -1 147 3 181 19 154 5 -6 22 -8 46 -4 31 5 39 4 39 -9 0 -8 -4
-18 -10 -21 -14 -9 -13 -112 2 -152 10 -27 10 -38 0 -53 -7 -11 -12 -36 -12
-55 0 -39 -19 -84 -46 -105 -22 -19 -83 -40 -115 -40 -51 0 -139 57 -139 90 0
9 -5 21 -11 27 -11 11 -20 319 -10 328 2 3 11 0 20 -4 9 -5 28 -7 42 -4z
m1299 -14 c15 -8 34 -29 44 -47 38 -72 39 -222 1 -295 -31 -61 -121 -94 -192
-70 -50 17 -68 33 -94 83 -32 61 -32 205 0 267 26 49 43 65 86 78 39 13 121 4
155 -16z m-4180 7 c9 -6 14 -21 12 -41 -3 -23 0 -30 10 -27 7 3 12 18 12 36
-1 19 4 33 13 36 23 9 31 -1 31 -38 0 -18 7 -47 16 -64 9 -17 16 -36 16 -42 0
-7 9 -23 20 -37 11 -14 20 -35 20 -47 0 -11 13 -58 30 -104 25 -70 27 -84 15
-89 -9 -3 -21 0 -29 6 -10 8 -16 8 -26 -4 -22 -26 -33 -17 -27 24 5 38 4 39
-32 45 -104 17 -158 0 -149 -48 7 -33 -10 -45 -29 -21 -10 15 -16 16 -25 7
-34 -34 -51 6 -24 56 23 46 38 96 37 123 -1 14 8 34 19 44 11 10 20 25 20 34
0 9 7 30 16 46 9 17 17 48 19 70 1 22 3 41 4 43 2 5 16 1 31 -8z m3516 -11
c61 -37 77 -78 77 -193 -1 -181 -41 -221 -222 -221 l-104 0 -1 218 -1 217 109
0 c92 0 114 -3 142 -21z m229 11 c5 -8 11 -7 21 0 33 28 37 8 36 -204 0 -115
-4 -212 -10 -218 -5 -5 -14 -3 -21 6 -10 12 -17 13 -31 3 -11 -6 -22 -9 -25
-6 -4 5 -10 388 -6 422 1 11 29 9 36 -3z m-4445 -75 c36 -19 54 -70 48 -143
-6 -69 -38 -102 -99 -102 -82 0 -126 104 -83 196 29 62 76 79 134 49z m5241
-2 c36 -22 53 -70 47 -139 -6 -72 -35 -104 -93 -104 -54 0 -92 37 -95 95 -5
84 -1 106 29 136 34 33 69 37 112 12z"/>
<path d="M5162 5777 c-9 -11 -12 -193 -10 -773 l3 -759 45 -5 c25 -3 180 -3
345 0 l300 6 77 33 c60 25 89 45 128 87 82 91 94 126 94 284 0 127 -1 138 -27
185 -41 78 -109 141 -189 178 -21 9 -38 21 -38 26 0 6 17 18 38 28 54 25 139
115 167 175 32 69 40 149 26 234 -24 138 -107 232 -253 287 -48 18 -83 21
-374 25 -271 3 -322 2 -332 -11z m616 -48 c183 -32 279 -129 298 -300 11 -100
-42 -226 -118 -281 -114 -81 -153 -88 -475 -88 l-273 0 -1 278 c0 152 -1 300
-1 329 0 29 3 57 7 63 9 14 480 13 563 -1z m77 -745 c152 -49 233 -150 243
-302 8 -132 -31 -242 -112 -306 -97 -77 -160 -88 -501 -84 l-270 3 -5 343 c-3
189 -2 349 2 355 11 20 578 11 643 -9z"/>
<path d="M5364 5587 c-2 -7 -3 -98 -2 -202 l3 -190 178 -3 c197 -2 252 7 314
53 82 64 90 208 15 288 -55 59 -94 67 -309 67 -148 0 -195 -3 -199 -13z"/>
<path d="M5372 4871 c-9 -6 -12 -63 -10 -222 l3 -214 205 0 c205 0 205 0 263
28 43 22 63 39 83 72 54 93 38 226 -34 283 -67 53 -119 63 -319 62 -99 -1
-185 -5 -191 -9z"/>
<path d="M7131 5318 c-5 -13 -32 -93 -61 -178 -29 -85 -66 -191 -82 -235 -34
-93 -52 -154 -47 -160 2 -2 93 -5 202 -6 152 -2 200 0 206 10 7 10 -20 104
-77 271 -80 235 -110 314 -120 318 -7 2 -16 -7 -21 -20z"/>
<path d="M2510 3815 c0 -16 17 -19 44 -9 22 9 10 24 -20 24 -15 0 -24 -6 -24
-15z"/>
<path d="M3305 3821 c-10 -17 31 -33 44 -17 6 7 8 16 4 19 -10 10 -41 8 -48
-2z"/>
<path d="M3640 3821 c0 -18 26 -31 38 -19 19 19 14 28 -13 28 -14 0 -25 -4
-25 -9z"/>
<path d="M4003 3778 c-19 -20 -21 -36 -21 -131 0 -95 2 -111 19 -128 14 -14
31 -19 56 -17 29 2 39 10 56 40 19 33 20 40 9 72 -11 28 -11 43 -1 69 10 30 9
37 -15 75 -31 49 -69 57 -103 20z"/>
<path d="M4421 3779 c-23 -19 -25 -28 -27 -122 -3 -131 10 -159 71 -155 36 3
42 7 58 42 16 34 17 45 7 76 -10 29 -10 42 0 59 8 17 9 31 1 54 -24 67 -65 84
-110 46z"/>
<path d="M5455 3820 c-8 -13 20 -24 41 -16 20 8 9 26 -16 26 -10 0 -22 -5 -25
-10z"/>
<path d="M6948 3773 c-24 -26 -25 -35 -25 -128 0 -88 2 -103 21 -122 13 -14
33 -23 51 -23 18 0 38 9 51 23 19 19 21 34 21 122 0 93 -1 102 -25 128 -14 15
-35 27 -47 27 -12 0 -33 -12 -47 -27z"/>
<path d="M2918 3688 c-9 -7 -19 -32 -23 -55 -6 -37 -4 -43 20 -59 25 -16 27
-16 50 6 19 18 22 26 14 36 -6 8 -11 29 -12 49 -1 38 -19 46 -49 23z"/>
<path d="M2827 3553 c-10 -10 -8 -53 2 -53 5 0 11 8 15 18 3 9 9 23 12 30 6
12 -18 17 -29 5z"/>
<path d="M3000 3553 c0 -4 9 -14 21 -21 18 -12 20 -11 17 5 -3 17 -38 32 -38
16z"/>
<path d="M6278 3779 c-22 -12 -24 -63 -3 -112 13 -31 13 -36 -1 -48 -11 -9
-14 -27 -12 -63 l3 -51 49 -3 c38 -3 53 1 71 18 21 19 23 30 23 126 0 103 -1
105 -28 124 -30 22 -75 25 -102 9z"/>
</g>
</svg>
